<svg version="1" xmlns="http://www.w3.org/2000/svg" width="666.667" height="666.667" viewBox="0 0 500.000000 500.000000"><path d="M14.5 177.8c-2 .3-2 .7-2.1 106.2 0 94.8.2 105.9 1.5 106.2 3.1.8 37 .2 37.8-.6.4-.4.7-32.8.5-71.9-.2-39.2-.1-71 .1-70.7.3.3 8.7 16.7 18.7 36.5 17.6 34.6 23.2 45.5 36.3 70.5 3.3 6.3 9.2 17.9 13.1 25.8 3.9 7.8 7.3 14.2 7.7 14.2 1.4 0 4.8-6.4 28.4-53.5 32.5-64.7 47.1-92.2 48.2-91.1.5.5.5 38.1-.1 103.2-.2 19.4 0 35.7.4 36.4.6.9 6.2 1.2 21.4 1.2 11.4.1 20.9-.2 21.3-.5 1.1-1.1 1.1-209.1 0-210.5-1.2-1.5-44.4-1.7-48.3-.1-1.9.7-4.9 6-13.7 24.1-6.3 12.8-15.1 30.3-19.7 38.8-8.9 16.3-17.7 33.7-23 45.5-4.5 9.9-11 22.8-12.2 24.2-.6.7-1.5 1-2 .7-1.1-.7-6.6-12.1-15.3-31.9-3.2-7.2-8.6-18.9-12-26-15-31.1-29.2-60.8-33.4-69.7-1.2-2.5-2.9-5.2-3.8-6-1.2-.9-7.1-1.3-24.7-1.3-12.7 0-24 .1-25.1.3zM330 177.8c-4.1.1-8.5.4-9.7.7l-2.3.5.3 105.3.2 105.2 18.8.5c10.4.3 19.7.2 20.6-.2 1-.3 2.1-1.8 2.5-3.3.4-1.4.7-22.9.7-47.7 0-36.8.2-44.9 1.3-43.7.7.8 5.5 6.8 10.6 13.4 5.2 6.6 9.6 12.2 10 12.5.3.3 2.1 2.5 4 5s3.7 4.7 4 5c.3.3 3.9 4.8 8 10s7.7 9.7 8 10c.3.3 3.2 3.9 6.5 8 3.2 4.1 6.5 8.1 7.3 8.9.7.8 3.9 4.6 7 8.5 3.1 3.9 6.9 8.6 8.6 10.3l3 3.3h24.3c28 0 28 0 21.7-7.8-2.2-2.6-4.4-5.4-5.1-6.2-12.4-15.8-40-51.4-45.3-58.5-2.5-3.3-4.7-6.2-5-6.5-.3-.3-3.4-4.3-7-9-3.5-4.7-9.3-12-12.7-16.3-3.5-4.4-6.3-8.2-6.3-8.6 0-.4.8-1.6 1.8-2.7.9-1 3.5-4.2 5.7-6.9 4.3-5.4 39.6-47.4 47.6-56.6 2.7-3.1 8.1-9.9 12-15 4-5.2 8.8-11.1 10.7-13.3 2.4-2.7 3.1-4.1 2.2-4.6-1.5-.9-40.9-1.3-44.1-.4-1.4.4-9.2 8.6-18.9 20.2-9.1 10.7-20.8 24.5-26 30.6-10.6 12.4-9.4 11-22.1 26.1-5 6-9.7 11.3-10.4 11.7-.9.6-1.2-8.9-1.2-43.3-.1-24.2-.4-44.3-.8-44.7-.7-.7-16.5-.9-30.5-.4z"/></svg>