<?xml version="1.0" standalone="no"?>
<!DOCTYPE svg PUBLIC "-//W3C//DTD SVG 20010904//EN"
 "http://www.w3.org/TR/2001/REC-SVG-20010904/DTD/svg10.dtd">
<svg version="1.0" xmlns="http://www.w3.org/2000/svg"
 width="500.000000pt" height="500.000000pt" viewBox="0 0 500.000000 500.000000"
 preserveAspectRatio="xMidYMid meet">
<metadata>
Created by potrace 1.11, written by Peter Selinger 2001-2013
</metadata>
<g transform="translate(0.000000,500.000000) scale(0.100000,-0.100000)"
fill="#000000" stroke="none">
<path d="M1370 2095 l0 -526 93 3 92 3 5 355 5 355 183 -358 c100 -197 182
-362 182 -367 0 -32 32 23 179 314 89 178 174 341 187 362 l23 39 1 -352 0
-353 105 0 105 0 0 525 0 525 -119 0 c-83 0 -122 -4 -129 -12 -5 -7 -83 -158
-172 -336 -90 -178 -166 -319 -170 -315 -4 4 -33 64 -63 133 -30 69 -91 199
-134 290 -44 91 -88 182 -98 203 l-17 37 -129 0 -129 0 0 -525z"/>
<path d="M2870 2095 l0 -526 103 3 102 3 5 233 5 233 155 -192 c85 -105 170
-212 188 -235 l34 -44 125 0 c102 0 124 3 120 14 -3 7 -61 85 -129 172 -192
246 -262 336 -276 356 -11 15 6 39 140 199 184 219 248 297 248 304 0 3 -51 5
-114 5 l-114 0 -188 -222 -189 -222 -3 222 -2 222 -105 0 -105 0 0 -525z"/>
</g>
</svg>
