<svg xmlns="http://www.w3.org/2000/svg" viewBox="0 0 688.93 41.56"><defs><style>.cls-1{fill:#1d1d1b;}</style></defs><title>Asset 2</title><g id="Layer_2" data-name="Layer 2"><g id="Layer_18" data-name="Layer 18"><path class="cls-1" d="M263.16,1A9.64,9.64,0,0,0,251.3,6.08s0,.18,0,.18l17.53-.78c4.44-.2,9.32-1,13.7.13,7.34,1.89,4.89,9.49.4,13.62a32.74,32.74,0,0,1-13,6.85c-9.43,2.8-19.62,3.46-29.36,4.36-11.63,1.08-23.3,1.73-35,2.14-46.63,1.65-93.4,1.21-140.05,1.62-13.12.12-26.24.37-39.36.14-9.26-.16-20.24-1.18-25.37-10l0,3.33c19.92-7.46,41.1-6,61.95-6.23,22.59-.26,45.19,0,67.77.74q67.37,2.12,134.62,6c89.67,5.14,179.34,11.59,269.16,13.41,25.18.51,50.37.63,75.56.18s51.46-.18,76.44-4.56c4.48-.79,3.53-26.3-.65-26.42-22.49-.67-45.15,1.56-67.66,2.22s-45.12.85-67.69.69c-44.87-.31-89.69-2.08-134.51-4.05C326,5.72,236.5.95,146.7,3.81c-25.2.8-50.38,2.65-75.48,5C47.09,11,23.06,14.6.66,24.29c-.72.31-.33,2.83,0,3.33,4.91,8,14.91,9,23.51,9,13.46-.08,26.93-.62,40.39-.82l81.32-1.25c27.36-.42,54.76-.54,82.06-2.5,12.06-.87,24.39-1.72,36.26-4.13C272.46,26.23,283,22.79,287,14.55c3-6.14-2.12-9.43-8-9.71-7.19-.33-14.63.6-21.82,1-.19,0-3.47.45-3.9.19q-2.37-.57-.62-1.94a9.47,9.47,0,0,1,3-2.39,9.7,9.7,0,0,1,7.51-.5s0-.12,0-.13Z" transform="translate(-0.25 -0.52)"/></g></g></svg>