<svg xmlns="http://www.w3.org/2000/svg" viewBox="0 0 591.78 75.19"><defs><style>.cls-1{fill:#1d1d1b;}</style></defs><title>Asset 1</title><g id="Layer_2" data-name="Layer 2"><g id="Layer_23" data-name="Layer 23"><path class="cls-1" d="M321.11,2.92c55.74,11.37,112.23-.49,168.31-1.39,25-.4,51.45.81,74.52,11.5a81.79,81.79,0,0,1,15.22,9.12c5.67,4.32,16,14.7,10.9,22.85-3.62,5.78-9.19,3.8-14.65,3.5-6.88-.38-13.74.24-20.61-.5-14.28-1.56-28.94-.53-43.29-.54-15.1,0-30.19.33-45.29.27-28.93-.13-57.83-1-86.74-2.08-29.52-1.12-59-2.81-88.52-3.27L202.29,41c-33.21-.52-66.42-.82-99.63-1.22l-49.82-.6c-7.79-.09-16.16-1.08-23.91-.19-4,.46-7.85,1.45-11.91,1.65L3.1,41.36c-4.35.23-4.12,27.78.69,28.15,8.06.61,16,1,24,2.59,7.66,1.52,16.13.66,23.92.75l45.83.52,93.65,1.06c30.88.35,61.76.5,92.65.73s61.61-.47,92.44-1.09S438,73.11,468.79,72c15.09-.56,30.2-1.13,45.23-2.5,7.2-.66,14.42-1.28,21.59-2.26,8.68-1.18,16.9-3.17,25.44-5,6.32-1.34,13.53-1.5,19-5.13,4.35-2.9,9-6,10.87-11.09,2.51-6.93-.61-14.27-5.12-19.62-7.6-9-19.95-14.76-30.86-18.52-11.9-4.1-24.44-6.11-37-7C452.24-4.09,386.5,15.25,321.09,2.13c-.07,0-.15.76,0,.8Z"/></g></g></svg>