<?xml version="1.0" encoding="utf-8"?>
<!-- Generator: Adobe Illustrator 19.0.0, SVG Export Plug-In . SVG Version: 6.00 Build 0)  -->
<svg version="1.1" xmlns="http://www.w3.org/2000/svg" xmlns:xlink="http://www.w3.org/1999/xlink" x="0px" y="0px"
	 viewBox="-177 -255.7073 400 400" style="enable-background:new -177 -255.7073 400 400;" xml:space="preserve">
<style type="text/css">
	.st0{fill-rule:evenodd;clip-rule:evenodd;fill:#FFFFFF;}
	.st1{fill:#FFCA1A;}
	
		.st2{fill-rule:evenodd;clip-rule:evenodd;fill:none;stroke:#0194BE;stroke-width:1.92;stroke-linecap:round;stroke-miterlimit:10;stroke-dasharray:0.032,8.096;}
	.st3{fill:#ED7C64;}
</style>
<g id="Layer_3">
	<circle class="st0" cx="23" cy="-55.7073" r="197.5817"/>
</g>
<g id="Layer_2">
	<g id="CIRCLE_2_">
		<g>
			<path class="st1" d="M23-241.0806c-0.7019,0-1.4029,0.0038-2.1029,0.0117l0.5004,44.7973
				c0.3261-0.0037,0.6553-0.0062,0.9819-0.0077c0.009,0,0.018-0.0001,0.027-0.0001c0.0237-0.0001,0.044-0.0002,0.0676-0.0003
				c0.0142-0.0001,0.0283-0.0001,0.0425-0.0002c0.0189-0.0001,0.0399-0.0001,0.0588-0.0002
				c0.0176-0.0001,0.0351-0.0001,0.0527-0.0002c0.0142,0,0.0368-0.0001,0.051-0.0001c0.0208,0,0.0417-0.0001,0.0626-0.0001
				c0.0142,0,0.029-0.0001,0.0432-0.0001c0.0241-0.0001,0.0482-0.0001,0.0723-0.0001c0.0095,0,0.0258,0,0.0353-0.0001
				c0.0358,0,0.0717,0,0.1075,0V-241.0806L23-241.0806z M13.0826-240.8188c-0.7019,0.0371-1.4027,0.0783-2.1024,0.1231
				l2.8719,44.7079c0.1854-0.0119,0.3708-0.0234,0.5564-0.0346c0.0093-0.0006,0.0103-0.0006,0.0197-0.0012
				c0.0234-0.0014,0.0469-0.0028,0.0703-0.0042c0.014-0.0008,0.0336-0.002,0.0476-0.0028c0.0076-0.0005,0.0152-0.0009,0.0228-0.0013
				c0.2895-0.0171,0.585-0.0337,0.8749-0.049c0.0022-0.0001,0.0044-0.0002,0.0065-0.0004L13.0826-240.8188L13.0826-240.8188z
				 M3.1719-240.0289c-0.6996,0.0746-1.3979,0.1531-2.095,0.2354l5.2557,44.4906c0.529-0.0624,1.0589-0.122,1.5896-0.1786
				L3.1719-240.0289L3.1719-240.0289z M-6.6979-238.7078c-0.6947,0.1122-1.3881,0.2281-2.0803,0.3479l7.6393,44.1439
				c0.109-0.0189,0.218-0.0376,0.3271-0.0562c0.009-0.0016,0.0216-0.0037,0.0306-0.0052c0.0201-0.0034,0.0403-0.0069,0.0604-0.0103
				c0.0181-0.0031,0.0432-0.0073,0.0612-0.0104c0.0088-0.0015,0.0176-0.003,0.0264-0.0045
				c0.2215-0.0375,0.4362-0.0733,0.6581-0.1098c0.0082-0.0013,0.0164-0.0027,0.0246-0.004c0.0181-0.003,0.0357-0.0059,0.0538-0.0089
				c0.0205-0.0034,0.0411-0.0067,0.0616-0.0101c0.0091-0.0015,0.0169-0.0027,0.0259-0.0042
				c0.0823-0.0134,0.1645-0.0268,0.2468-0.0401L-6.6979-238.7078L-6.6979-238.7078z M-16.492-236.8553
				c-0.6889,0.1497-1.3763,0.3031-2.0623,0.4604l10.0113,43.667c0.2091-0.0479,0.4184-0.0953,0.6278-0.1423
				c0.0089-0.002,0.0266-0.006,0.0355-0.0079c0.0177-0.004,0.0354-0.008,0.0532-0.0119c0.0178-0.004,0.0374-0.0084,0.0552-0.0124
				c0.011-0.0024,0.022-0.0049,0.033-0.0074c0.0222-0.0049,0.0495-0.011,0.0718-0.016c0.0032-0.0007,0.0065-0.0014,0.0097-0.0022
				c0.0666-0.0148,0.1277-0.0284,0.1943-0.0431c0.1602-0.0354,0.3205-0.0705,0.4809-0.1054L-16.492-236.8553L-16.492-236.8553z
				 M-26.1773-234.4753c-0.6804,0.1869-1.3593,0.3776-2.0367,0.5718l12.3589,43.0616c0.1167-0.0334,0.2335-0.0668,0.3503-0.1
				c0.013-0.0037,0.0161-0.0046,0.0292-0.0083c0.0118-0.0034,0.0235-0.0067,0.0353-0.01c0.0869-0.0247,0.1668-0.0472,0.2538-0.0717
				c0.0019-0.0005,0.0038-0.0011,0.0057-0.0016c0.0174-0.0049,0.0336-0.0095,0.051-0.0143c0.019-0.0054,0.038-0.0107,0.0571-0.0161
				c0.0043-0.0012,0.0173-0.0048,0.0216-0.006c0.2456-0.0689,0.4916-0.1372,0.7377-0.2048L-26.1773-234.4753L-26.1773-234.4753z
				 M-35.7239-231.5735c-0.6689,0.2231-1.336,0.4501-2.0014,0.6808l14.6713,42.3296c0.2246-0.0779,0.4448-0.1536,0.6699-0.2303
				c0.2812-0.0959,0.5629-0.1909,0.8449-0.2851L-35.7239-231.5735L-35.7239-231.5735z M-45.0976-228.1599
				c-0.6553,0.2589-1.3086,0.5213-1.9601,0.7874l16.9391,41.4742c0.0522-0.0213,0.1045-0.0426,0.1567-0.0639
				c0.3473-0.1413,0.6977-0.2823,1.0463-0.4209c0.0028-0.0011,0.0055-0.0022,0.0083-0.0033
				c0.0249-0.0099,0.0564-0.0224,0.0813-0.0323c0.0096-0.0038,0.0193-0.0076,0.0289-0.0115
				c0.0208-0.0082,0.0426-0.0169,0.0634-0.0251c0.0201-0.008,0.0402-0.0159,0.0603-0.0239
				c0.0083-0.0033,0.0234-0.0093,0.0317-0.0125c0.0023-0.0009,0.0045-0.0018,0.0068-0.0027L-45.0976-228.1599L-45.0976-228.1599z
				 M-54.2694-224.2462c-0.6403,0.2939-1.2786,0.5913-1.9149,0.8923L-37.03-182.855c0.3013-0.1425,0.5982-0.2817,0.9007-0.4221
				c0.0018-0.0009,0.0037-0.0017,0.0055-0.0025c0.0202-0.0094,0.0439-0.0204,0.0641-0.0297
				c0.0105-0.0049,0.0211-0.0098,0.0317-0.0147c0.0161-0.0075,0.033-0.0153,0.0491-0.0227
				c0.0164-0.0076,0.0328-0.0152,0.0493-0.0228c0.0121-0.0056,0.0234-0.0108,0.0355-0.0164
				c0.0204-0.0094,0.0408-0.0189,0.0612-0.0283c0.0121-0.0056,0.0183-0.0085,0.0304-0.014
				c0.0222-0.0102,0.0443-0.0204,0.0665-0.0307c0.0081-0.0037,0.0183-0.0084,0.0264-0.0121
				c0.0229-0.0106,0.0459-0.0211,0.0688-0.0317c0.0081-0.0037,0.0183-0.0084,0.0264-0.0121
				c0.0116-0.0053,0.0232-0.0107,0.0347-0.016L-54.2694-224.2462L-54.2694-224.2462z M-63.2122-219.8453
				c-0.6233,0.3279-1.2444,0.6591-1.8634,0.9938l21.3089,39.4079c0.4089-0.2212,0.8192-0.4404,1.2306-0.6576
				c0.0026-0.0014,0.0052-0.0027,0.0078-0.0041c0.0157-0.0083,0.0298-0.0157,0.0454-0.024
				c0.0427-0.0226,0.0855-0.0451,0.1283-0.0676L-63.2122-219.8453L-63.2122-219.8453z M-71.9009-214.9716
				c-0.604,0.3606-1.2059,0.7244-1.8054,1.0916l23.3964,38.2053c0.2294-0.1404,0.4591-0.2802,0.6893-0.4194l0.0007-0.0004
				c0.0278-0.0168,0.0556-0.0336,0.0834-0.0504c0.0189-0.0114,0.0291-0.0176,0.048-0.029c0.0129-0.0078,0.0258-0.0156,0.0387-0.0233
				c0.0227-0.0137,0.0394-0.0237,0.0621-0.0374c0.0073-0.0044,0.0146-0.0088,0.0219-0.0132
				c0.0265-0.016,0.0442-0.0266,0.0707-0.0425c0.0049-0.003,0.0099-0.006,0.0148-0.0089c0.0265-0.0159,0.055-0.033,0.0815-0.0489
				l0.0006-0.0004c0.0871-0.0522,0.1701-0.1019,0.2573-0.154L-71.9009-214.9716L-71.9009-214.9716z M-80.3097-209.6414
				c-0.5836,0.3921-1.1646,0.7876-1.7434,1.1861l25.4119,36.8956c0.439-0.3024,0.8801-0.6025,1.3227-0.9L-80.3097-209.6414
				L-80.3097-209.6414z M-88.4164-203.8716c-0.5616,0.4227-1.1206,0.8486-1.677,1.2776l27.35,35.4826
				c0.373-0.2875,0.7475-0.5732,1.1235-0.857c0.0211-0.0159,0.0344-0.026,0.0555-0.0419c0.0053-0.004,0.0106-0.008,0.0159-0.012
				c0.0281-0.0212,0.05-0.0377,0.0781-0.0588L-88.4164-203.8716L-88.4164-203.8716z M-96.2-197.6785
				c-0.5379,0.4519-1.073,0.9067-1.6056,1.3647l29.2069,33.9704c0.4044-0.3477,0.8109-0.6931,1.2191-1.0363L-96.2-197.6785
				L-96.2-197.6785z M-103.6396-191.0805c-0.5127,0.4799-1.0229,0.9626-1.5301,1.4482l30.9787,32.363
				c0.0668-0.0639,0.1336-0.1277,0.2005-0.1915l0.0047-0.0045c0.0167-0.0159,0.0333-0.0318,0.05-0.0477
				c0.0127-0.0121,0.0189-0.018,0.0316-0.0301c0.0048-0.0045,0.0096-0.0091,0.0144-0.0137c0.2609-0.2483,0.521-0.4939,0.7838-0.7402
				c0.0024-0.0023,0.0049-0.0045,0.0073-0.0068c0.0192-0.018,0.0435-0.0407,0.0627-0.0587c0.0023-0.0022,0.0046-0.0044,0.007-0.0065
				L-103.6396-191.0805L-103.6396-191.0805z M-110.7156-184.0955c-0.4863,0.5066-0.9699,1.0158-1.4506,1.5279l32.6616,30.6637
				c0.3667-0.3907,0.7305-0.7739,1.1017-1.1603L-110.7156-184.0955L-110.7156-184.0955z M-117.409-176.7422
				c-0.4587,0.5317-0.9146,1.0662-1.3673,1.6033l34.252,28.8761c0.3357-0.398,0.6734-0.7942,1.0134-1.1886
				c0.0057-0.0067,0.0091-0.0105,0.0148-0.0172c0.0034-0.0039,0.0067-0.0078,0.0101-0.0117L-117.409-176.7422L-117.409-176.7422z
				 M-123.7017-169.0403c-0.4299,0.5557-0.8566,1.114-1.2803,1.6748l35.7464,27.0043c0.3216-0.4257,0.6456-0.8496,0.9719-1.2714
				L-123.7017-169.0403L-123.7017-169.0403z M-129.576-161.0097c-0.3996,0.5781-0.7959,1.1586-1.189,1.7414l37.1409,25.0518
				c0.0517-0.0768,0.1008-0.1492,0.1526-0.2259c0.0064-0.0094,0.0127-0.0188,0.0191-0.0282
				c0.0074-0.0109,0.0138-0.0203,0.0212-0.0313c0.0142-0.0209,0.0284-0.0419,0.0426-0.0628l0.003-0.0043
				c0.2199-0.3239,0.4411-0.6469,0.6636-0.9689L-129.576-161.0097L-129.576-161.0097z M-135.0143-152.6718
				c-0.3681,0.5988-0.733,1.2-1.0944,1.8034l38.4316,23.023c0.2724-0.4548,0.5524-0.9163,0.8298-1.3676L-135.0143-152.6718
				L-135.0143-152.6718z M-139.9997-144.0495c-0.3357,0.6184-0.668,1.2389-0.9969,1.8616l39.6143,20.9226
				c0.029-0.0548,0.0585-0.1106,0.0875-0.1654c0.0064-0.0121,0.0128-0.0241,0.0192-0.0362
				c0.0062-0.0117,0.0157-0.0295,0.0219-0.0413c0.0141-0.0266,0.0283-0.0532,0.0424-0.0798l0.001-0.0019
				c0.1929-0.363,0.3874-0.7251,0.5834-1.0862L-139.9997-144.0495L-139.9997-144.0495z M-144.5166-135.1657
				c-0.302,0.6358-0.6006,1.2737-0.8956,1.9134l40.6846,18.7567c0.0558-0.1212,0.1108-0.2399,0.167-0.3609
				c0.0013-0.0028,0.0026-0.0056,0.0039-0.0085c0.0112-0.0242,0.0214-0.046,0.0326-0.0702
				c0.0106-0.0228,0.0212-0.0456,0.0318-0.0684c0.0019-0.004,0.004-0.0085,0.0058-0.0125c0.1192-0.256,0.2392-0.5114,0.36-0.7665
				c0.0095-0.0201,0.0215-0.0453,0.031-0.0654c0.0011-0.0024,0.0023-0.0049,0.0034-0.0073
				c0.0133-0.0281,0.0293-0.0619,0.0427-0.0899L-144.5166-135.1657L-144.5166-135.1657z M-148.5502-126.046
				c-0.2671,0.6511-0.5307,1.3041-0.7907,1.9588l41.6383,16.5316c0.0381-0.0958,0.0762-0.1916,0.1145-0.2873
				c0.0066-0.0166,0.0125-0.0312,0.0191-0.0478c0.0058-0.0144,0.0115-0.0288,0.0173-0.0432
				c0.0099-0.0249,0.0207-0.0516,0.0306-0.0764c0.0016-0.004,0.0033-0.0081,0.0049-0.0121c0.0116-0.029,0.0246-0.0612,0.0362-0.0902
				l0-0.0001c0.1249-0.3107,0.249-0.6163,0.3761-0.9259L-148.5502-126.046L-148.5502-126.046z M-152.0857-116.7192
				c-0.2317,0.665-0.4597,1.3316-0.684,2l42.4716,14.2547c0.0242-0.0722,0.0485-0.1443,0.0729-0.2164
				c0.0043-0.0128,0.0084-0.0249,0.0127-0.0376c0.0049-0.0146,0.0098-0.0291,0.0147-0.0436
				c0.0992-0.2935,0.2011-0.5914,0.3022-0.884c0.0383-0.1108,0.0767-0.2215,0.1152-0.3321L-152.0857-116.7192L-152.0857-116.7192z
				 M-155.1122-107.213c-0.1954,0.677-0.3871,1.3554-0.5751,2.0356l43.181,11.9349c0.0987-0.3572,0.198-0.7111,0.2995-1.0671
				c0.045-0.158,0.0903-0.3159,0.1358-0.4736L-155.1122-107.213L-155.1122-107.213z M-157.6194-97.5576
				c-0.1584,0.6859-0.3132,1.3733-0.464,2.062l43.7633,9.5824c0.0068-0.0311,0.0135-0.0615,0.0203-0.0926
				c0.001-0.0044,0.0019-0.0087,0.0029-0.0131c0.0059-0.0267,0.0121-0.0548,0.0179-0.0814
				c0.0018-0.0082,0.0036-0.0164,0.0054-0.0246c0.0059-0.0267,0.0106-0.0483,0.0165-0.0749
				c0.002-0.0089,0.0039-0.0178,0.0059-0.0267c0.0049-0.0222,0.0114-0.0514,0.0163-0.0736c0.0015-0.0067,0.003-0.0134,0.0045-0.0201
				c0.0858-0.3864,0.1725-0.769,0.2615-1.1543L-157.6194-97.5576L-157.6194-97.5576z M-159.6004-87.7847
				c-0.121,0.6921-0.2381,1.3856-0.3514,2.0804l44.2164,7.2079c0.0162-0.0997,0.0309-0.1891,0.0473-0.2887
				c0.0013-0.0081,0.0027-0.0163,0.004-0.0244c0.003-0.0181,0.0078-0.0473,0.0108-0.0655c0.0038-0.0231,0.0077-0.0462,0.0115-0.0692
				c0.0015-0.009,0.0031-0.0184,0.0046-0.0274c0.0237-0.1425,0.0477-0.2849,0.0718-0.4273l0.0006-0.0037
				c0.0056-0.0333,0.0113-0.0666,0.017-0.0999c0.0008-0.0045,0.0027-0.0155,0.0034-0.0201c0.0048-0.0283,0.0097-0.0567,0.0145-0.085
				c0.0016-0.009,0.0024-0.014,0.004-0.0231c0.0049-0.0285,0.0098-0.0571,0.0147-0.0856c0.0016-0.009,0.0014-0.0083,0.003-0.0173
				c0.0195-0.1132,0.0391-0.2263,0.0588-0.3393L-159.6004-87.7847L-159.6004-87.7847z M-161.0504-77.9307
				c-0.0834,0.6967-0.163,1.3949-0.2387,2.094l44.5396,4.823c0.002-0.0181,0.0039-0.0361,0.0059-0.0542
				c0.0005-0.0046,0.0008-0.0074,0.0013-0.012c0.0553-0.5084,0.1133-1.0159,0.174-1.5226L-161.0504-77.9307L-161.0504-77.9307z
				 M-161.9686-68.0287c-0.0461,0.6996-0.0883,1.4001-0.1266,2.1017l44.7334,2.44c0.0224-0.4101,0.0465-0.8196,0.0724-1.2287
				c0.0012-0.0187,0.0023-0.0359,0.0035-0.0546c0.0005-0.0084,0.0011-0.0167,0.0016-0.025
				c0.0062-0.0979,0.0123-0.1913,0.0187-0.2892L-161.9686-68.0287L-161.9686-68.0287z M-162.358-58.1117
				c-0.0089,0.6997-0.0139,1.4004-0.015,2.1021l44.7999,0.0719c0.0007-0.4486,0.0036-0.8969,0.0085-1.3446
				c0.0001-0.0095,0.0002-0.0218,0.0004-0.0312c0.0002-0.019,0.0004-0.038,0.0007-0.057c0.0003-0.0236,0.0005-0.0446,0.0008-0.0682
				c0-0.0008,0-0.0016,0-0.0016c0.0004-0.0339,0.0008-0.0661,0.0012-0.0992L-162.358-58.1117L-162.358-58.1117z M-117.4589-49.9843
				l-44.7641,1.7924c0.028,0.7009,0.06,1.4007,0.0959,2.0996l44.7411-2.2952c-0.0165-0.321-0.0319-0.6424-0.0462-0.9641
				c-0.0002-0.0047-0.001-0.0231-0.0013-0.0278c-0.0005-0.0126-0.0011-0.0253-0.0017-0.0379
				C-117.4433-49.6049-117.4514-49.7966-117.4589-49.9843L-117.4589-49.9843z M-116.9564-42.4506l-44.6053,4.1721
				c0.0656,0.7004,0.135,1.3997,0.2083,2.0979l44.5551-4.6776c-0.0102-0.0968-0.0208-0.1986-0.0307-0.2955
				c-0.0004-0.0038-0.0008-0.0076-0.0012-0.0115c-0.0024-0.0231-0.0053-0.0516-0.0077-0.0747
				C-116.8791-41.6429-116.9187-42.0465-116.9564-42.4506L-116.9564-42.4506z M-116.0522-34.9549l-44.3174,6.5574
				c0.1031,0.6974,0.2103,1.3936,0.3212,2.0886l44.2397-7.063C-115.8927-33.8986-115.974-34.4263-116.0522-34.9549
				L-116.0522-34.9549z M-114.7459-27.5166l-43.8996,8.9366c0.1406,0.6909,0.285,1.3803,0.4333,2.0683l43.7944-9.4384
				c-0.0561-0.2606-0.1115-0.5214-0.1662-0.7825c-0.0533-0.2543-0.1073-0.516-0.1593-0.7708
				C-114.7441-27.5079-114.745-27.5122-114.7459-27.5166L-114.7459-27.5166z M-113.04-20.1602l-43.3524,11.2964
				c0.1777,0.682,0.3591,1.3624,0.5444,2.0413l43.22-11.7926c-0.0631-0.2315-0.1257-0.4633-0.1877-0.6953
				c-0.0012-0.0044-0.0038-0.0142-0.005-0.0186c-0.007-0.0264-0.0141-0.0527-0.0211-0.0791
				c-0.0035-0.0131-0.0064-0.0242-0.0099-0.0373c-0.0052-0.0195-0.0103-0.0388-0.0155-0.0583
				c-0.0046-0.0175-0.0093-0.0349-0.0139-0.0524c-0.0037-0.014-0.0074-0.028-0.0112-0.042
				c-0.0058-0.0219-0.0126-0.0474-0.0183-0.0693c-0.0016-0.0061-0.0032-0.0121-0.0048-0.0182
				C-112.9571-19.843-112.9989-20.0025-113.04-20.1602L-113.04-20.1602z M-110.939-12.9075l-42.6776,13.626
				c0.2144,0.6716,0.4326,1.3414,0.6544,2.0096l42.5184-14.1146c-0.1132-0.3411-0.2272-0.6891-0.3379-1.0313
				c-0.0023-0.007-0.0045-0.014-0.0068-0.0211c-0.0069-0.0214-0.013-0.0401-0.0199-0.0615c-0.005-0.0155-0.01-0.0309-0.015-0.0464
				c-0.0055-0.0171-0.0083-0.0257-0.0138-0.0428c-0.0069-0.0214-0.0138-0.0429-0.0207-0.0644
				c-0.0028-0.0086-0.0065-0.0201-0.0092-0.0287c-0.0089-0.0278-0.0179-0.0557-0.0268-0.0835l-0.0033-0.0101
				c-0.0104-0.0324-0.0208-0.0649-0.0311-0.0973l-0.0007-0.0023C-110.9323-12.8864-110.9357-12.8969-110.939-12.9075
				L-110.939-12.9075z M-108.4487-5.7795l-41.8777,15.9151c0.2506,0.6591,0.5047,1.3166,0.7624,1.9723l41.6926-16.3944
				c-0.0948-0.2412-0.1911-0.4881-0.2847-0.73c-0.003-0.0079-0.0061-0.0158-0.0091-0.0236
				c-0.0081-0.0208-0.0142-0.0368-0.0223-0.0577c-0.0059-0.0153-0.0118-0.0306-0.0177-0.0459
				c-0.0048-0.0125-0.0105-0.0271-0.0153-0.0396c-0.0093-0.024-0.0185-0.0481-0.0278-0.0722
				c-0.0016-0.0042-0.0031-0.008-0.0047-0.0122C-108.3186-5.4381-108.3838-5.6087-108.4487-5.7795L-108.4487-5.7795z
				 M-105.576,1.2044l-40.9564,18.1554c0.2856,0.6441,0.5747,1.2863,0.8673,1.9266l40.7458-18.6229
				c-0.1666-0.3646-0.3318-0.7302-0.4954-1.0966C-105.4692,1.4451-105.5219,1.3265-105.576,1.2044L-105.576,1.2044z
				 M-102.3306,8.0228l-39.9174,20.3383c0.3196,0.6271,0.6426,1.2521,0.969,1.8751l39.6826-20.7926
				c-0.0037-0.007-0.0074-0.0141-0.0111-0.0211l-0.0002-0.0003c-0.0148-0.0282-0.0295-0.0564-0.0443-0.0846
				c-0.0082-0.0157-0.0123-0.0234-0.0205-0.0392c-0.0074-0.0141-0.0147-0.0282-0.0221-0.0423
				c-0.0144-0.0275-0.0254-0.0487-0.0397-0.0762c-0.0005-0.0009-0.001-0.0018-0.0014-0.0028
				C-101.9344,8.7959-102.1353,8.4061-102.3306,8.0228L-102.3306,8.0228z M-98.7227,14.6561l-38.765,22.4569
				c0.3527,0.609,0.7088,1.2156,1.0683,1.8201l38.5067-22.8971c-0.1016-0.1709-0.2034-0.3428-0.3043-0.5141
				c-0.002-0.0033-0.0039-0.0066-0.0058-0.0099c-0.0135-0.0229-0.0282-0.048-0.0417-0.0708
				c-0.0084-0.0143-0.0168-0.0285-0.0252-0.0428c-0.009-0.0152-0.0147-0.0249-0.0236-0.0402
				C-98.4504,15.1245-98.5869,14.8905-98.7227,14.6561L-98.7227,14.6561z M-94.7634,21.0858l-37.5034,24.5059
				c0.3847,0.5887,0.7727,1.1751,1.1638,1.7593l37.2226-24.9304c-0.0009-0.0013-0.0018-0.0027-0.0027-0.004
				c-0.0147-0.022-0.0315-0.0471-0.0462-0.0691c-0.0134-0.02-0.0267-0.04-0.0401-0.06c-0.0024-0.0037-0.0083-0.0125-0.0108-0.0161
				c-0.1952-0.2922-0.3893-0.5852-0.5823-0.8789l-0.001-0.0015c-0.0169-0.0258-0.0339-0.0516-0.0508-0.0774
				c-0.0073-0.0111-0.0115-0.0176-0.0188-0.0286c-0.0109-0.0166-0.0218-0.0332-0.0327-0.0498
				c-0.0121-0.0184-0.0221-0.0338-0.0342-0.0522c-0.0048-0.0074-0.0096-0.0147-0.0144-0.0221
				C-94.7314,21.1349-94.7466,21.1117-94.7634,21.0858L-94.7634,21.0858z M-90.4649,27.2944l-36.1367,26.4796
				c0.4153,0.5669,0.8339,1.1313,1.2554,1.6933l35.8343-26.8877c-0.002-0.0026-0.004-0.0053-0.0059-0.0079
				c-0.1162-0.1549-0.233-0.3112-0.3485-0.4666c-0.0031-0.0042-0.0062-0.0083-0.0093-0.0125
				c-0.0131-0.0177-0.0296-0.0398-0.0427-0.0575c-0.0101-0.0136-0.0201-0.0271-0.0302-0.0407
				c-0.0079-0.0106-0.0136-0.0183-0.0215-0.0289C-90.1356,27.7423-90.3006,27.5186-90.4649,27.2944L-90.4649,27.2944z
				 M-85.8403,33.2637l-34.6693,28.374c0.445,0.5437,0.8929,1.0847,1.3439,1.6231L-84.82,34.4961
				c-0.1508-0.1801-0.3012-0.3606-0.4512-0.5415c-0.0028-0.0034-0.0042-0.0051-0.007-0.0084
				c-0.0187-0.0226-0.0374-0.0452-0.0561-0.0677c-0.0196-0.0237-0.0351-0.0424-0.0547-0.0661
				c-0.0024-0.0029-0.0048-0.0058-0.0072-0.0087C-85.5446,33.6241-85.6928,33.444-85.8403,33.2637L-85.8403,33.2637z
				 M-80.9034,38.9775l-33.1046,30.1847c0.4731,0.519,0.9493,1.0353,1.4283,1.5489l32.7611-30.5574
				c-0.1588-0.1702-0.3101-0.3332-0.4681-0.5042c-0.0145-0.0157-0.029-0.0314-0.0435-0.0471
				c-0.003-0.0032-0.0126-0.0136-0.0156-0.0169C-80.5322,39.3834-80.7181,39.1808-80.9034,38.9775L-80.9034,38.9775z
				 M-75.6684,44.4197l-31.4466,31.9084c0.5001,0.493,1.0031,0.983,1.5089,1.4703l31.0836-32.2621
				c-0.1495-0.144-0.2987-0.2884-0.4475-0.4331c-0.0031-0.0031-0.0139-0.0135-0.017-0.0165
				c-0.0174-0.0169-0.0349-0.0339-0.0523-0.0509c-0.0094-0.0092-0.0234-0.0228-0.0328-0.032
				c-0.0125-0.0122-0.025-0.0244-0.0375-0.0366c-0.0157-0.0153-0.0263-0.0256-0.042-0.041
				c-0.0094-0.0092-0.0187-0.0183-0.0281-0.0275c-0.0157-0.0153-0.0313-0.0305-0.047-0.0459
				c-0.0085-0.0083-0.0171-0.0167-0.0257-0.0251c-0.0157-0.0153-0.0307-0.03-0.0464-0.0454
				c-0.0095-0.0093-0.0189-0.0185-0.0284-0.0278c-0.0157-0.0154-0.0253-0.0248-0.041-0.0402
				c-0.0134-0.0131-0.0269-0.0263-0.0403-0.0395c-0.0094-0.0092-0.0187-0.0183-0.0281-0.0275
				c-0.0196-0.0193-0.0393-0.0386-0.0589-0.0578c-0.0031-0.0031-0.0057-0.0056-0.0089-0.0087
				C-75.5592,44.5273-75.6138,44.4735-75.6684,44.4197L-75.6684,44.4197z M-70.1506,49.5745L-99.8493,83.116
				c0.5257,0.4656,1.0543,0.9283,1.5854,1.3879l29.3171-33.8753c-0.0953-0.0825-0.1904-0.1651-0.2855-0.2478l-0.0023-0.002
				c-0.0148-0.0128-0.0295-0.0257-0.0442-0.0385C-69.5703,50.0863-69.8612,49.8309-70.1506,49.5745L-70.1506,49.5745z
				 M-64.3653,54.4277L-92.23,89.5075c0.55,0.437,1.1026,0.8707,1.6577,1.3014l27.4653-35.3933
				c-0.3384-0.2627-0.6757-0.5269-1.0117-0.7926l-0.0012-0.0009c-0.0264-0.0209-0.0529-0.0418-0.0793-0.0627l-0.0037-0.0029
				c-0.0187-0.0148-0.0374-0.0296-0.0561-0.0444C-64.2969,54.482-64.3274,54.4578-64.3653,54.4277L-64.3653,54.4277z
				 M-58.329,58.9645l-25.9483,36.5201c0.5729,0.407,1.1481,0.8109,1.7257,1.2116l25.5321-36.8124
				c-0.2219-0.1538-0.4432-0.3083-0.6641-0.4634c-0.0072-0.0051-0.0199-0.014-0.0271-0.019
				c-0.0171-0.012-0.0342-0.024-0.0513-0.0361c-0.0216-0.0152-0.0478-0.0336-0.0694-0.0488
				c-0.0031-0.0022-0.0063-0.0044-0.0094-0.0066c-0.0252-0.0178-0.0518-0.0365-0.077-0.0543
				c-0.0015-0.001-0.0029-0.0021-0.0044-0.0031c-0.0216-0.0152-0.048-0.0338-0.0695-0.0491
				c-0.0057-0.004-0.0114-0.0081-0.0171-0.0121c-0.018-0.0127-0.0355-0.0251-0.0535-0.0378
				c-0.0143-0.0101-0.0286-0.0203-0.043-0.0304c-0.0072-0.0051-0.0153-0.0108-0.0225-0.0159
				C-58.1948,59.0597-58.262,59.0122-58.329,58.9645L-58.329,58.9645z M-52.0586,63.1715l-23.9534,37.8586
				c0.5943,0.376,1.1909,0.7487,1.7896,1.1181l23.5211-38.1287C-51.1554,63.7394-51.6079,63.4567-52.0586,63.1715L-52.0586,63.1715z
				 M-45.571,67.0363l-21.885,39.0907c0.6137,0.3436,1.2296,0.6837,1.8476,1.0206l21.4379-39.3377
				C-44.639,67.5545-45.1059,67.2967-45.571,67.0363L-45.571,67.0363z M-38.8852,70.5463l-19.748,40.2127
				c0.6316,0.3101,1.2651,0.6167,1.9007,0.9199l19.2871-40.4356c-0.1644-0.0785-0.3287-0.1572-0.4928-0.2363
				c-0.008-0.0039-0.0047-0.0022-0.0126-0.0061c-0.0262-0.0126-0.0524-0.0253-0.0786-0.0379
				c-0.008-0.0039-0.0113-0.0055-0.0193-0.0093c-0.0233-0.0112-0.0466-0.0225-0.0698-0.0337
				c-0.008-0.0039-0.0198-0.0096-0.0278-0.0134c-0.0216-0.0104-0.0431-0.0209-0.0647-0.0313
				c-0.012-0.0058-0.0183-0.0089-0.0303-0.0147c-0.0186-0.009-0.0371-0.018-0.0557-0.027c-0.016-0.0078-0.0252-0.0122-0.0412-0.02
				c-0.0147-0.0071-0.0294-0.0143-0.044-0.0214c-0.016-0.0078-0.0345-0.0168-0.0505-0.0245
				c-0.009-0.0044-0.0179-0.0087-0.0269-0.0131C-38.6033,70.6844-38.7417,70.6167-38.8852,70.5463L-38.8852,70.5463z
				 M-32.0201,73.6905l-17.549,41.2199c0.648,0.2759,1.2979,0.5481,1.9496,0.8169l17.0756-41.4181
				c-0.2228-0.0918-0.4454-0.1843-0.6676-0.2773c-0.0165-0.0069-0.0339-0.0142-0.0503-0.0211
				c-0.0096-0.004-0.0193-0.0081-0.029-0.0121C-31.5376,73.8952-31.7741,73.7954-32.0201,73.6905L-32.0201,73.6905z
				 M-24.995,76.4595l-15.2946,42.1084c0.662,0.2404,1.3259,0.4773,1.9913,0.7104l14.8106-42.2811
				C-23.9914,76.8209-24.494,76.6416-24.995,76.4595L-24.995,76.4595z M-17.8297,78.8447l-12.9931,42.8744
				c0.6736,0.2041,1.3489,0.4046,2.0256,0.6011l12.5006-43.0206c-0.0397-0.0115-0.0793-0.0231-0.1189-0.0346
				c-0.0043-0.0013-0.0172-0.005-0.0215-0.0063c-0.0227-0.0066-0.0454-0.0133-0.0681-0.0199
				c-0.0173-0.0051-0.0438-0.0128-0.0611-0.0179c-0.0093-0.0027-0.0187-0.0055-0.028-0.0082
				c-0.0303-0.0089-0.0539-0.0158-0.0841-0.0247c-0.0012-0.0004-0.0024-0.0007-0.0036-0.0011
				c-0.3159-0.0928-0.6241-0.1844-0.939-0.2794c-0.0086-0.0026-0.0172-0.0052-0.0257-0.0078
				c-0.0129-0.0039-0.037-0.0112-0.05-0.0151c-0.0208-0.0063-0.0415-0.0125-0.0623-0.0188
				c-0.0086-0.0026-0.0123-0.0037-0.0209-0.0063C-17.7966,78.8547-17.8132,78.8497-17.8297,78.8447L-17.8297,78.8447z
				 M-10.5469,80.8381l-10.6543,43.5147c0.6836,0.1674,1.3686,0.331,2.055,0.4907l10.155-43.6339
				c-0.1216-0.0283-0.2432-0.0568-0.3646-0.0854C-9.7537,81.0305-10.1503,80.9353-10.5469,80.8381L-10.5469,80.8381z
				 M-3.1672,82.435l-8.2884,44.0266c0.6917,0.1303,1.3846,0.2566,2.0789,0.3791l7.7844-44.1186
				c-0.0316-0.0056-0.0556-0.0098-0.0872-0.0154c-0.2448-0.0433-0.4893-0.0873-0.7336-0.1319
				c-0.009-0.0016-0.0209-0.0038-0.0299-0.0055c-0.0205-0.0037-0.0409-0.0075-0.0614-0.0112
				c-0.018-0.0033-0.0409-0.0075-0.0589-0.0108c-0.0098-0.0018-0.0196-0.0036-0.0293-0.0054
				c-0.1665-0.0306-0.3296-0.0609-0.4959-0.0921C-3.1148,82.4448-3.141,82.4399-3.1672,82.435L-3.1672,82.435z M4.2886,83.6315
				l-5.9067,44.4089c0.697,0.0927,1.3951,0.1816,2.0944,0.2664L5.877,83.8335C5.7485,83.818,5.6183,83.802,5.4899,83.786
				c-0.009-0.0011-0.018-0.0022-0.027-0.0033c-0.0229-0.0029-0.0364-0.0045-0.0594-0.0074
				c-0.0234-0.0029-0.0469-0.0059-0.0703-0.0088c-0.0092-0.0012-0.0159-0.002-0.025-0.0031
				c-0.1805-0.0227-0.361-0.0457-0.5413-0.069L4.7642,83.694c-0.0329-0.0043-0.0659-0.0085-0.0988-0.0128
				c-0.0137-0.0018-0.0173-0.0023-0.031-0.0041c-0.0241-0.0031-0.0482-0.0063-0.0723-0.0094
				c-0.0137-0.0018-0.0248-0.0033-0.0386-0.0051c-0.0217-0.0029-0.0434-0.0057-0.0651-0.0086
				c-0.0183-0.0024-0.0245-0.0032-0.0428-0.0056c-0.0227-0.003-0.0453-0.006-0.068-0.009c-0.0091-0.0012-0.023-0.0031-0.0322-0.0043
				C4.3065,83.6339,4.2975,83.6327,4.2886,83.6315L4.2886,83.6315z M11.7983,84.4261l-3.521,44.6614
				c0.6989,0.0551,1.3989,0.1064,2.1,0.1537l3.0164-44.6984C12.8579,84.5068,12.3324,84.4683,11.7983,84.4261L11.7983,84.4261z
				 M19.3403,84.8193l-1.1444,44.7854c0.6984,0.0179,1.3977,0.0317,2.0981,0.0419l0.644-44.7954
				c-0.0944-0.0013-0.1844-0.0027-0.2788-0.0042c-0.0096-0.0002-0.0193-0.0003-0.029-0.0005
				c-0.0142-0.0002-0.0272-0.0005-0.0414-0.0007c-0.0265-0.0005-0.053-0.0009-0.0796-0.0014
				c-0.0047-0.0001-0.0102-0.0002-0.0149-0.0003c-0.0346-0.0006-0.0692-0.0012-0.1038-0.0019l-0.0013,0
				c-0.1865-0.0034-0.3729-0.0071-0.5592-0.0113c-0.0094-0.0002-0.0274-0.0006-0.0368-0.0008
				c-0.0222-0.0005-0.0444-0.001-0.0666-0.0015c-0.0189-0.0004-0.0367-0.0008-0.0555-0.0013
				c-0.0157-0.0004-0.0314-0.0007-0.0471-0.0011c-0.0236-0.0006-0.0386-0.0009-0.0622-0.0015
				c-0.0142-0.0003-0.0283-0.0007-0.0425-0.001c-0.0188-0.0005-0.0447-0.0011-0.0635-0.0016
				c-0.0147-0.0004-0.0294-0.0007-0.0441-0.0011c-0.0188-0.0005-0.0382-0.001-0.057-0.0014
				C19.3499,84.8195,19.3451,84.8194,19.3403,84.8193L19.3403,84.8193z M28.4934,84.7606
				c-0.1972,0.0076-0.3934,0.0147-0.5908,0.0215c-0.0037,0.0001-0.0074,0.0003-0.0111,0.0004
				c-0.0282,0.001-0.0519,0.0018-0.0801,0.0027c-0.0084,0.0003-0.0167,0.0006-0.0251,0.0008
				c-0.0235,0.0008-0.0523,0.0017-0.0758,0.0025c-0.0097,0.0003-0.0194,0.0006-0.0291,0.001
				c-0.0282,0.0009-0.0485,0.0016-0.0768,0.0025c-0.0079,0.0003-0.0157,0.0005-0.0235,0.0008
				c-0.0235,0.0007-0.0598,0.0019-0.0834,0.0026c-0.0041,0.0001-0.0083,0.0003-0.0125,0.0004
				c-0.1552,0.0049-0.3047,0.0093-0.46,0.0137c-0.0147,0.0004-0.0293,0.0008-0.044,0.0012c-0.0141,0.0004-0.0228,0.0006-0.037,0.001
				c-0.0172,0.0005-0.0343,0.001-0.0515,0.0014l1.2177,44.7834c0.702-0.0191,1.4031-0.0421,2.1031-0.069L28.4934,84.7606
				L28.4934,84.7606z M36.0281,84.2703c-0.3332,0.0306-0.6605,0.0595-0.9944,0.0878c-0.1998,0.0169-0.3997,0.0335-0.5996,0.0496
				l3.5946,44.6556c0.7009-0.0564,1.4006-0.1167,2.0991-0.181L36.0281,84.2703L36.0281,84.2703z M43.5254,83.3783
				c-0.1051,0.0154-0.2102,0.0306-0.3153,0.0457c-0.0046,0.0007-0.0159,0.0023-0.0205,0.0029
				c-0.0245,0.0035-0.0491,0.007-0.0736,0.0106c-0.0182,0.0026-0.046,0.0066-0.0642,0.0092
				c-0.0103,0.0015-0.0206,0.0029-0.0309,0.0044c-0.0274,0.0039-0.0539,0.0077-0.0812,0.0116
				c-0.0045,0.0006-0.009,0.0013-0.0134,0.0019c-0.0319,0.0045-0.0599,0.0085-0.0918,0.013c0,0-0.0016,0.0002-0.0024,0.0003
				c-0.1323,0.0187-0.262,0.0368-0.3944,0.0551c-0.1651,0.0228-0.3302,0.0454-0.4955,0.0677l5.9801,44.399
				c0.6973-0.0939,1.3933-0.1917,2.0881-0.2933L43.5254,83.3783L43.5254,83.3783z M50.9653,82.0843
				c-0.2712,0.0548-0.5427,0.1087-0.8145,0.1619l-0.0068,0.0013c-0.0279,0.0055-0.0559,0.0109-0.0838,0.0164
				c-0.0179,0.0035-0.0365,0.0071-0.0545,0.0106c-0.011,0.0021-0.0221,0.0043-0.0331,0.0064
				c-0.1928,0.0375-0.3838,0.0742-0.5769,0.1109l8.3616,44.0128c0.6921-0.1316,1.3829-0.2669,2.0723-0.406L50.9653,82.0843
				L50.9653,82.0843z M58.3246,80.3905c-0.1339,0.0346-0.2678,0.0691-0.4018,0.1033c-0.0044,0.0011-0.0062,0.0016-0.0106,0.0027
				c-0.0298,0.0076-0.0596,0.0152-0.0895,0.0228c-0.0132,0.0034-0.0147,0.0037-0.0279,0.0071
				c-0.0237,0.006-0.0474,0.0121-0.0711,0.0181c-0.0132,0.0033-0.0265,0.0067-0.0396,0.0101
				c-0.02,0.0051-0.0401,0.0102-0.0601,0.0152c-0.0132,0.0033-0.0325,0.0082-0.0457,0.0116
				c-0.0175,0.0044-0.0351,0.0089-0.0526,0.0133c-0.0176,0.0044-0.035,0.0088-0.0526,0.0133
				c-0.0153,0.0039-0.0306,0.0077-0.0459,0.0116c-0.022,0.0055-0.0351,0.0088-0.0571,0.0144
				c-0.0134,0.0034-0.0267,0.0067-0.0401,0.0101c-0.022,0.0055-0.0405,0.0102-0.0625,0.0157
				c-0.0115,0.0029-0.0231,0.0058-0.0346,0.0087c-0.022,0.0055-0.0443,0.0111-0.0663,0.0166
				c-0.0102,0.0025-0.0204,0.0051-0.0307,0.0076c-0.022,0.0055-0.048,0.012-0.07,0.0174c-0.0072,0.0018-0.0144,0.0036-0.0215,0.0054
				c-0.0792,0.0197-0.1466,0.0364-0.2258,0.056c-0.0153,0.0038-0.0306,0.0076-0.0459,0.0113l10.7267,43.4969
				c0.6849-0.1689,1.3683-0.3416,2.0501-0.518L58.3246,80.3905L58.3246,80.3905z M65.581,78.3014
				c-0.3621,0.1149-0.7247,0.2284-1.0881,0.3405l-0.0011,0.0003c-0.0271,0.0083-0.0541,0.0167-0.0812,0.025
				c-0.0215,0.0066-0.0411,0.0126-0.0626,0.0193c-0.0042,0.0013-0.0085,0.0026-0.0127,0.0039
				c-0.0947,0.0291-0.1877,0.0576-0.2825,0.0865l13.0647,42.8527c0.6747-0.2057,1.3479-0.4151,2.0193-0.6283L65.581,78.3014
				L65.581,78.3014z M72.7132,75.8227c-0.1255,0.0475-0.2421,0.0914-0.3678,0.1385c-0.3764,0.1412-0.7535,0.2807-1.1315,0.4188
				l15.3649,42.0827c0.662-0.2417,1.3223-0.487,1.9807-0.736L72.7132,75.8227L72.7132,75.8227z M79.7014,72.9617
				c-0.4196,0.1852-0.8413,0.3688-1.263,0.55c-0.0087,0.0037-0.0174,0.0075-0.0261,0.0112
				c-0.0041,0.0018-0.0172,0.0074-0.0213,0.0091c-0.0522,0.0224-0.1045,0.0448-0.1568,0.0672l17.6176,41.1906
				c0.6477-0.2771,1.2936-0.5577,1.9376-0.8419L79.7014,72.9617L79.7014,72.9617z M86.5253,69.7274
				c-0.087,0.0442-0.1786,0.0905-0.2657,0.1345c-0.001,0.0005-0.002,0.001-0.003,0.0015c-0.0198,0.01-0.0313,0.0158-0.0511,0.0258
				c-0.0207,0.0104-0.0413,0.0208-0.062,0.0313l-0.0032,0.0016c-0.2792,0.1406-0.5588,0.2803-0.8391,0.419
				c-0.0079,0.0039-0.0146,0.0073-0.0226,0.0112c-0.0075,0.0037-0.015,0.0074-0.0226,0.0112
				c-0.0557,0.0276-0.1065,0.0526-0.1622,0.0801l19.8148,40.1797c0.6319-0.3116,1.2616-0.6266,1.8893-0.9451L86.5253,69.7274
				L86.5253,69.7274z M93.1644,66.1304c-0.0306,0.0177-0.0558,0.0322-0.0864,0.0498l-0.0003,0.0002
				c-0.0153,0.0088-0.0291,0.0168-0.0444,0.0256c-0.0206,0.0119-0.0412,0.0237-0.0618,0.0356l-0.0003,0.0002
				c-0.243,0.1398-0.4865,0.2788-0.7305,0.4171c-0.0038,0.0022-0.0064,0.0036-0.0103,0.0058
				c-0.0225,0.0127-0.0449,0.0255-0.0674,0.0382c-0.0115,0.0065-0.0184,0.0104-0.0299,0.017
				c-0.0136,0.0077-0.0272,0.0154-0.0407,0.023c-0.0192,0.0109-0.0371,0.021-0.0563,0.0318
				c-0.0007,0.0004-0.0015,0.0009-0.0022,0.0013c-0.0886,0.05-0.1709,0.0964-0.2596,0.1463l21.9499,39.0544
				c0.6134-0.3449,1.2249-0.693,1.834-1.0446L93.1644,66.1304L93.1644,66.1304z M99.6006,62.1817
				c-0.2217,0.1444-0.4466,0.2899-0.6692,0.433c-0.0142,0.0091-0.0283,0.0182-0.0425,0.0273
				c-0.0111,0.0072-0.0228,0.0146-0.0339,0.0218c-0.1996,0.1282-0.3996,0.2559-0.5999,0.3832l24.0161,37.8187
				c0.5936-0.3769,1.1849-0.7571,1.7739-1.1406L99.6006,62.1817L99.6006,62.1817z M105.8161,57.8933
				c-0.4306,0.3144-0.8631,0.6266-1.2974,0.9363l26.0084,36.4773c0.5723-0.408,1.1423-0.8193,1.7097-1.2337L105.8161,57.8933
				L105.8161,57.8933z M111.7931,53.2784c-0.4133,0.337-0.8284,0.6719-1.2456,1.0043l27.9224,35.034
				c0.5494-0.438,1.0963-0.879,1.6407-1.323L111.7931,53.2784L111.7931,53.2784z M117.5148,48.3508
				c-0.2039,0.1853-0.4083,0.37-0.6133,0.5541c-0.0098,0.0088-0.018,0.0161-0.0278,0.0249
				c-0.0137,0.0123-0.0275,0.0247-0.0413,0.037c-0.0163,0.0147-0.0331,0.0297-0.0495,0.0444
				c-0.0057,0.0051-0.0114,0.0102-0.0171,0.0153c-0.1472,0.1319-0.2934,0.2623-0.4412,0.3936l29.754,33.4924
				c0.525-0.4664,1.0474-0.9359,1.5671-1.4081L117.5148,48.3508L117.5148,48.3508z M122.9656,43.1247
				c-0.375,0.3793-0.7521,0.7564-1.1314,1.1314l31.499,31.8567c0.4994-0.4939,0.996-0.9904,1.4897-1.4897L122.9656,43.1247
				L122.9656,43.1247z M128.1294,37.6153c-0.0502,0.0565-0.1004,0.1129-0.1507,0.1694c-0.0088,0.0098-0.0171,0.0191-0.0258,0.029
				c-0.0107,0.012-0.0214,0.024-0.0321,0.036c-0.0175,0.0197-0.0364,0.0408-0.054,0.0604
				c-0.0019,0.0022-0.0038,0.0043-0.0057,0.0064c-0.1083,0.1212-0.2206,0.2465-0.3294,0.3673
				c-0.0038,0.0042-0.0076,0.0084-0.0113,0.0126c-0.0176,0.0196-0.0322,0.0357-0.0498,0.0553
				c-0.1365,0.1515-0.2733,0.3028-0.4104,0.4537l33.1543,30.1301c0.4723-0.5197,0.9416-1.042,1.4081-1.5671L128.1294,37.6153
				L128.1294,37.6153z M132.9919,31.8379c-0.1041,0.1307-0.2043,0.2559-0.3089,0.3862c-0.0014,0.0018-0.0028,0.0035-0.0043,0.0053
				c-0.0083,0.0103-0.0166,0.0206-0.0248,0.0309c-0.2211,0.2752-0.4431,0.5497-0.6663,0.8232l34.716,28.3167
				c0.444-0.5443,0.885-1.0913,1.3229-1.6407L132.9919,31.8379L132.9919,31.8379z M137.5386,25.8088
				c-0.3093,0.4338-0.6222,0.8675-0.9363,1.2976l36.1804,26.42c0.4144-0.5674,0.8257-1.1374,1.2337-1.7099L137.5386,25.8088
				L137.5386,25.8088z M141.7559,19.5453c-0.0281,0.0442-0.0561,0.0883-0.0842,0.1324c-0.0071,0.0112-0.0145,0.0228-0.0216,0.0339
				c-0.0031,0.0048-0.0061,0.0096-0.0092,0.0144c-0.1019,0.16-0.2038,0.3192-0.3064,0.4787
				c-0.0042,0.0065-0.0085,0.0131-0.0126,0.0197c-0.0095,0.0148-0.0192,0.0299-0.0288,0.0447
				c-0.0112,0.0175-0.0225,0.0349-0.0337,0.0524c-0.0048,0.0074-0.0049,0.0076-0.0097,0.015
				c-0.1192,0.185-0.2389,0.3698-0.3589,0.5543l37.5439,24.4436c0.3834-0.5889,0.7637-1.1801,1.1406-1.7739L141.7559,19.5453
				L141.7559,19.5453z M145.631,13.0643c-0.0498,0.0887-0.097,0.1725-0.1471,0.261c0,0-0.0002,0.0003-0.0003,0.0005
				c-0.0109,0.0193-0.0223,0.0395-0.0332,0.0587c-0.0075,0.0132-0.015,0.0264-0.0224,0.0397
				c-0.0065,0.0115-0.0128,0.0226-0.0193,0.0342c-0.0114,0.0201-0.0228,0.0402-0.0342,0.0603
				c-0.0044,0.0077-0.0085,0.0149-0.0128,0.0226c-0.0138,0.0243-0.0276,0.0486-0.0414,0.073
				c-0.0022,0.0038-0.0048,0.0084-0.0069,0.0122c-0.0151,0.0266-0.0302,0.0532-0.0454,0.0798
				c-0.0022,0.0038-0.0044,0.0078-0.0066,0.0117c-0.0148,0.0259-0.0295,0.0519-0.0443,0.0778
				c-0.0044,0.0077-0.0054,0.0094-0.0098,0.0171c-0.0125,0.0219-0.0249,0.0437-0.0374,0.0656
				c-0.0088,0.0154-0.011,0.0193-0.0198,0.0347c-0.0085,0.0149-0.017,0.0298-0.0255,0.0446
				c-0.011,0.0192-0.0219,0.0383-0.0329,0.0575c-0.0025,0.0044-0.0051,0.0088-0.0076,0.0132
				c-0.0813,0.142-0.1632,0.2845-0.245,0.4262l38.8022,22.3927c0.3514-0.6091,0.6997-1.2206,1.0444-1.8341L145.631,13.0643
				L145.631,13.0643z M149.1522,6.3839c-0.2356,0.4777-0.4752,0.9568-0.7161,1.4314l39.9512,20.2719
				c0.3184-0.6277,0.6336-1.2574,0.9451-1.8893L149.1522,6.3839L149.1522,6.3839z M152.3077-0.4757
				c-0.1508,0.3526-0.303,0.7045-0.4566,1.0557l-0.0017,0.004c-0.0138,0.0317-0.0277,0.0633-0.0416,0.095l-0.0008,0.0017
				c-0.0454,0.1037-0.091,0.2073-0.1367,0.3108l40.9866,18.087c0.2841-0.6439,0.5647-1.2897,0.8419-1.9374L152.3077-0.4757
				L152.3077-0.4757z M155.0883-7.4963c-0.0385,0.1053-0.0771,0.2106-0.1158,0.3158c-0.0031,0.0084-0.0049,0.0134-0.008,0.0218
				c-0.0083,0.0226-0.0166,0.0451-0.0249,0.0677c-0.0062,0.0168-0.0096,0.026-0.0158,0.0428
				c-0.0052,0.0142-0.0105,0.0284-0.0157,0.0425c-0.0078,0.021-0.0162,0.0438-0.0239,0.0648
				c-0.0024,0.0065-0.0049,0.0131-0.0073,0.0197c-0.0093,0.0252-0.021,0.0566-0.0303,0.0818l0,0.0001
				c-0.0778,0.2099-0.1556,0.4182-0.2344,0.6276c-0.0045,0.0119-0.0089,0.0237-0.0134,0.0356
				c-0.0047,0.0126-0.0094,0.025-0.0142,0.0376c-0.0091,0.0241-0.0181,0.0481-0.0272,0.0722l-0.0019,0.005
				c-0.0081,0.0215-0.0162,0.0429-0.0243,0.0644l41.9041,15.8454c0.249-0.6584,0.4944-1.3187,0.7361-1.9807L155.0883-7.4963
				L155.0883-7.4963z M157.4851-14.6575c-0.1073,0.3519-0.216,0.7032-0.3259,1.0539c-0.0094,0.0301-0.0163,0.052-0.0258,0.082
				c-0.0013,0.0041-0.0026,0.0082-0.0038,0.0122c-0.0094,0.03-0.0197,0.0626-0.0291,0.0926
				c-0.0002,0.0006-0.0004,0.0013-0.0006,0.0019c-0.0095,0.03-0.0189,0.06-0.0284,0.09c-0.0007,0.0024-0.0015,0.0047-0.0022,0.0071
				c-0.0081,0.0257-0.0188,0.0595-0.027,0.0853c-0.0014,0.0045-0.0028,0.0089-0.0042,0.0134
				c-0.0081,0.0257-0.0157,0.0495-0.0239,0.0753c-0.0015,0.0048-0.0031,0.0097-0.0046,0.0145l42.7003,13.5547
				c0.2131-0.6714,0.4226-1.3446,0.6281-2.0193L157.4851-14.6575L157.4851-14.6575z M159.4907-21.9376
				c-0.127,0.5152-0.2594,1.0391-0.3922,1.552l43.3711,11.224c0.1766-0.6819,0.3493-1.3653,0.5181-2.0501L159.4907-21.9376
				L159.4907-21.9376z M161.0996-29.3144c-0.0367,0.1931-0.0754,0.3947-0.1129,0.5875c-0.0003,0.0014-0.0005,0.0029-0.0008,0.0043
				c-0.0052,0.0269-0.0122,0.0628-0.0175,0.0897c-0.0013,0.0066-0.0026,0.0132-0.0039,0.0198
				c-0.0052,0.0269-0.0095,0.0487-0.0148,0.0756c-0.0025,0.0129-0.0051,0.0258-0.0076,0.0386
				c-0.0044,0.0224-0.0075,0.0383-0.0119,0.0607c-0.0039,0.0199-0.0078,0.0398-0.0117,0.0597
				c-0.0026,0.0134-0.0052,0.0267-0.0079,0.0401c-0.0063,0.0318-0.0126,0.0636-0.0189,0.0953
				c-0.0009,0.0045-0.0007,0.0035-0.0016,0.0079c-0.0069,0.0347-0.0137,0.0692-0.0206,0.1039
				c-0.0018,0.009-0.0046,0.0232-0.0064,0.0321c-0.0045,0.0225-0.009,0.045-0.0135,0.0676c-0.0045,0.0224-0.008,0.04-0.0125,0.0624
				c-0.0023,0.0117-0.0047,0.0234-0.007,0.0351c-0.0063,0.0313-0.0119,0.0594-0.0182,0.0907
				c-0.0001,0.0003-0.0001,0.0005-0.0001,0.0005c-0.0073,0.0361-0.0125,0.0622-0.0197,0.098l43.9144,8.8634
				c0.1391-0.6894,0.2746-1.3801,0.406-2.0723L161.0996-29.3144L161.0996-29.3144z M162.3083-36.768
				c-0.0492,0.3656-0.0989,0.7239-0.1509,1.0886c-0.0001,0.0004-0.0001,0.001-0.0002,0.0014
				c-0.0045,0.0319-0.0085,0.0597-0.0131,0.0916c-0.0017,0.0117-0.0034,0.0235-0.0051,0.0353
				c-0.0033,0.0228-0.0054,0.0377-0.0087,0.0605c-0.0147,0.102-0.0295,0.2039-0.0444,0.3058l44.3283,6.4841
				c0.1016-0.6947,0.1994-1.3907,0.2933-2.088L162.3083-36.768L162.3083-36.768z M163.1153-44.2762
				c-0.0253,0.3143-0.0517,0.6283-0.0791,0.942l-0.0004,0.0049c-0.0027,0.0304-0.0053,0.0609-0.008,0.0914
				c-0.0008,0.0093-0.0021,0.0237-0.0029,0.0329c-0.0018,0.0207-0.0037,0.0414-0.0055,0.0621
				c-0.0012,0.0139-0.0033,0.037-0.0045,0.0509c-0.0013,0.0147-0.0026,0.0294-0.0039,0.0441
				c-0.0021,0.0232-0.0037,0.0419-0.0058,0.065c-0.0005,0.006-0.0011,0.012-0.0016,0.018c-0.0071,0.0787-0.014,0.155-0.0212,0.2337
				c-0.0015,0.0163-0.003,0.0327-0.0045,0.0491l44.6122,4.0988c0.0641-0.6987,0.1244-1.3984,0.1808-2.0993L163.1153-44.2762
				L163.1153-44.2762z M163.5206-51.8175c-0.0057,0.2082-0.0118,0.4163-0.0184,0.6242c-0.0006,0.0188-0.0013,0.0395-0.0019,0.0583
				c-0.0003,0.0094-0.0006,0.0188-0.0009,0.0282c-0.0095,0.2962-0.02,0.5941-0.0314,0.8898l44.767,1.7194
				c0.0269-0.7001,0.0499-1.4011,0.069-2.1033L163.5206-51.8175L163.5206-51.8175z M208.3118-60.5154L163.5264-59.37
				c0.0057,0.2214,0.0111,0.4539,0.0157,0.6755c0.0002,0.0084,0.0004,0.0168,0.0005,0.0252
				c0.0005,0.0236,0.0008,0.0391,0.0013,0.0627c0.0003,0.0149,0.0006,0.0299,0.0009,0.0448
				c0.0004,0.0189,0.0009,0.0433,0.0012,0.0621c0.0003,0.0137,0.0005,0.0275,0.0008,0.0412
				c0.0004,0.0236,0.0008,0.0448,0.0013,0.0684c0.0002,0.0114,0.0004,0.0228,0.0006,0.0341c0.0004,0.0236,0.0009,0.05,0.0013,0.0736
				c0.0002,0.0086,0.0003,0.0173,0.0005,0.0259c0.0005,0.0283,0.0009,0.0523,0.0014,0.0806
				c0.0001,0.0049,0.0002,0.0098,0.0002,0.0147c0.0016,0.0944,0.0032,0.1911,0.0046,0.2855c0,0.0012,0,0.0024,0.0001,0.0036
				c0.0002,0.0142,0.0004,0.0246,0.0006,0.0388c0.0003,0.0203,0.0006,0.0407,0.0009,0.061l44.7953-0.645
				C208.3437-59.1176,208.3297-59.817,208.3118-60.5154L208.3118-60.5154z M207.7946-70.434l-44.6613,3.522
				c0.0158,0.2008,0.0312,0.4017,0.0462,0.6028c0.0021,0.0279,0.004,0.0535,0.006,0.0814c0.0004,0.0051,0.0007,0.0101,0.0011,0.0152
				c0.022,0.2977,0.043,0.5945,0.0631,0.8926c0.0001,0.0011,0.0002,0.0023,0.0002,0.0034l44.6983-3.0174
				C207.901-69.0352,207.8497-69.7352,207.7946-70.434L207.7946-70.434z M206.7473-80.3293l-44.4089,5.9076
				c0.0481,0.3612,0.0939,0.7166,0.1393,1.0786c0.0011,0.0087,0.0022,0.0174,0.0033,0.0262
				c0.0029,0.0229,0.0052,0.0413,0.008,0.0642c0.0022,0.0179,0.0045,0.0358,0.0067,0.0537
				c0.0017,0.0137,0.0037,0.0301,0.0054,0.0438c0.0033,0.027,0.0067,0.054,0.01,0.0809c0.0006,0.0046,0.0016,0.0131,0.0022,0.0177
				c0.0092,0.0744,0.0183,0.1488,0.0273,0.2232l44.4731-5.4016C206.9288-78.9343,206.84-79.6325,206.7473-80.3293L206.7473-80.3293z
				 M205.1681-90.1667l-44.0264,8.2893c0.0719,0.3817,0.1422,0.7639,0.2109,1.1466c0.0251,0.1397,0.0516,0.2884,0.0762,0.4282
				l44.1184-7.7853C205.4247-88.7822,205.2984-89.4752,205.1681-90.1667L205.1681-90.1667z M203.0593-99.9123L159.5447-89.257
				c0.1263,0.5155,0.2511,1.038,0.3716,1.5557l43.6337-10.156C203.3901-98.5437,203.2266-99.2287,203.0593-99.9123L203.0593-99.9123
				z M200.4253-109.5339l-42.8741,12.994c0.0159,0.0524,0.0317,0.1047,0.0475,0.1571c0.0013,0.0043,0.0034,0.0113,0.0047,0.0157
				c0.0061,0.0204,0.0123,0.0407,0.0184,0.0611c0.0052,0.0173,0.0101,0.0334,0.0153,0.0507
				c0.0014,0.0047,0.0028,0.0094,0.0042,0.0141c0.0856,0.2848,0.1686,0.5641,0.2525,0.8497
				c0.0002,0.0005,0.0003,0.0011,0.0005,0.0016c0.0089,0.0303,0.019,0.0646,0.0278,0.0949l0.0001,0.0004
				c0.0279,0.0952,0.0563,0.1925,0.084,0.2878l43.0204-12.5016C200.8298-108.1852,200.6294-108.8603,200.4253-109.5339
				L200.4253-109.5339z M197.2738-119.0006l-42.108,15.2954c0.182,0.501,0.3613,1.0036,0.5378,1.5073l42.2808-14.8114
				C197.7513-117.6749,197.5144-118.3386,197.2738-119.0006L197.2738-119.0006z M193.6161-128.2802l-41.2194,17.5499
				c0.0014,0.0033,0.0028,0.0066,0.0042,0.0099c0.0768,0.1805,0.153,0.3604,0.229,0.5413c0.0005,0.0011,0.0009,0.0022,0.0014,0.0032
				c0.0121,0.0288,0.0206,0.049,0.0327,0.0778c0.0051,0.012,0.0101,0.024,0.0151,0.036c0.0069,0.0164,0.0126,0.03,0.0195,0.0465
				c0.1063,0.2534,0.2119,0.5073,0.3166,0.7615l41.4177-17.0764C194.1643-126.9823,193.892-127.6322,193.6161-128.2802
				L193.6161-128.2802z M189.4644-137.344l-40.2121,19.7488c0.235,0.4784,0.4673,0.9584,0.697,1.4398l40.4351-19.288
				C190.0813-136.0789,189.7746-136.7125,189.4644-137.344L189.4644-137.344z M184.8324-146.1667l-39.0904,21.8859
				c0.0649,0.1158,0.1294,0.2313,0.1939,0.3473c0.0005,0.0009,0.001,0.0018,0.0015,0.0027c0.0065,0.0116,0.008,0.0143,0.0144,0.0259
				c0.1894,0.3406,0.3773,0.682,0.5639,1.0244l39.3373-21.4386C185.5161-144.9372,185.176-145.553,184.8324-146.1667
				L184.8324-146.1667z M179.7353-154.7227l-37.858,23.9544c0.0378,0.0598,0.0756,0.1197,0.1134,0.1795
				c0.0094,0.015,0.0165,0.0262,0.0259,0.0411c0.0086,0.0137,0.0173,0.0274,0.0259,0.0411c0.0118,0.0186,0.0254,0.0403,0.0371,0.059
				c0.005,0.0079,0.0099,0.0158,0.0149,0.0237c0.0141,0.0224,0.0298,0.0474,0.0439,0.0698
				c0.0028,0.0044,0.0056,0.0089,0.0083,0.0133c0.0164,0.0262,0.0298,0.0475,0.0462,0.0737
				c0.0023,0.0036,0.0045,0.0072,0.0068,0.0108c0.0164,0.0262,0.0314,0.05,0.0477,0.0762c0.0016,0.0026,0.0033,0.0053,0.005,0.0079
				c0.0141,0.0224,0.0349,0.0557,0.0489,0.0782c0.0013,0.002,0.0025,0.004,0.0038,0.006c0.0164,0.0262,0.0338,0.0541,0.0501,0.0803
				c0.0008,0.0012,0.0015,0.0024,0.0023,0.0036c0.0187,0.0299,0.032,0.0513,0.0507,0.0813
				c0.0008,0.0013,0.0016,0.0026,0.0024,0.0039c0.105,0.1686,0.2104,0.3386,0.3147,0.5077l38.1281-23.522
				C180.484-153.5319,180.1113-154.1285,179.7353-154.7227L179.7353-154.7227z M174.1897-162.9878l-36.5197,25.949
				c0.1148,0.1615,0.2248,0.3169,0.3389,0.479c0.1945,0.2761,0.388,0.5529,0.5805,0.8305l36.8119-25.5327
				C175.0006-161.8398,174.5967-162.415,174.1897-162.9878L174.1897-162.9878z M168.2124-170.9403l-35.0793,27.8653
				c0.3246,0.4086,0.6468,0.819,0.9669,1.2312c0.0027,0.0035,0.0121,0.0155,0.0148,0.019c0.0021,0.0027,0.0043,0.0055,0.0064,0.0082
				l35.3927-27.4661C169.0831-169.8379,168.6493-170.3903,168.2124-170.9403L168.2124-170.9403z M161.8207-178.5596
				l-33.5409,29.6994c0.1369,0.1545,0.2703,0.3058,0.4065,0.461c0.2167,0.2469,0.4326,0.4945,0.6475,0.7429l33.8747-29.3179
				C162.7489-177.5053,162.2863-178.0338,161.8207-178.5596L161.8207-178.5596z M155.0327-185.8252l-31.9079,31.4473
				c0.0031,0.0032,0.0063,0.0064,0.0094,0.0096c0.2528,0.2565,0.5077,0.5172,0.7585,0.7757c0.1165,0.12,0.2328,0.2402,0.3488,0.3607
				l32.2614-31.0843C156.0157-184.822,155.5256-185.325,155.0327-185.8252L155.0327-185.8252z M147.8667-192.718l-30.1841,33.1053
				c0.0208,0.019,0.0416,0.0379,0.0623,0.0569c0.0032,0.003,0.0056,0.0051,0.0089,0.0081c0.007,0.0064,0.014,0.0128,0.021,0.0192
				c0.1914,0.1748,0.3748,0.3432,0.5651,0.519c0.0033,0.003,0.0065,0.006,0.0097,0.009c0.0161,0.0149,0.0392,0.0362,0.0553,0.0511
				c0.0085,0.0078,0.017,0.0157,0.0254,0.0235c0.0129,0.0119,0.0288,0.0266,0.0417,0.0385
				c0.0146,0.0135,0.0292,0.0271,0.0438,0.0406c0.0064,0.006,0.0153,0.0141,0.0217,0.0201
				c0.0224,0.0208,0.0448,0.0416,0.0672,0.0623l0.0007,0.0007c0.0845,0.0785,0.169,0.157,0.2533,0.2356l30.5567-32.7617
				C148.902-191.7687,148.3857-192.2448,147.8667-192.718L147.8667-192.718z M140.342-199.2193l-28.3733,34.6699
				c0.0476,0.039,0.0993,0.0813,0.1468,0.1203c0.0133,0.0109,0.0266,0.0218,0.0399,0.0327
				c0.0068,0.0056,0.0157,0.0129,0.0225,0.0185c0.2401,0.1972,0.4794,0.3952,0.7182,0.594c0.1013,0.0844,0.204,0.1701,0.3051,0.2548
				l28.764-34.3464C141.4267-198.3265,140.8856-198.7745,140.342-199.2193L140.342-199.2193z M132.4781-205.3113l-26.4789,36.1374
				c0.1598,0.1171,0.3237,0.2377,0.4829,0.3554c0,0,0.0003,0.0002,0.0005,0.0004c0.0248,0.0183,0.0518,0.0383,0.0766,0.0566
				c0.0021,0.0016,0.0043,0.0032,0.0064,0.0048c0.0212,0.0157,0.0485,0.0359,0.0697,0.0516
				c0.0053,0.0039,0.0106,0.0078,0.0159,0.0118c0.0212,0.0157,0.0408,0.0302,0.062,0.046c0.0077,0.0057,0.0155,0.0115,0.0232,0.0172
				c0.0177,0.0131,0.0368,0.0274,0.0545,0.0405c0.0119,0.0088,0.0237,0.0176,0.0356,0.0264
				c0.0141,0.0105,0.027,0.0201,0.0411,0.0306c0.018,0.0134,0.0359,0.0267,0.0539,0.0401c0.0106,0.0079,0.0125,0.0093,0.0231,0.0172
				c0.1134,0.0846,0.2267,0.1693,0.3399,0.2542l26.8869-35.8347C133.6094-204.4775,133.045-204.8959,132.4781-205.3113
				L132.4781-205.3113z M124.2956-210.9763l-24.5049,37.5038c0.2127,0.139,0.4251,0.2787,0.637,0.4189
				c0.2317,0.1532,0.4668,0.3096,0.6975,0.4641l24.9297-37.223C125.4708-210.2037,124.8844-210.5916,124.2956-210.9763
				L124.2956-210.9763z M115.8168-216.197l-22.4561,38.7654c0.4163,0.2411,0.8313,0.4844,1.2449,0.7297
				c0.0114,0.0068,0.0204,0.0121,0.0318,0.0189c0.0111,0.0066,0.0223,0.0132,0.0334,0.0198
				c0.0266,0.0158,0.0433,0.0257,0.0699,0.0415l22.8963-38.5071C117.0324-215.4882,116.4258-215.8443,115.8168-216.197
				L115.8168-216.197z M107.0648-220.957l-20.3374,39.9177c0.4753,0.2421,0.9489,0.4868,1.421,0.7341l20.7917-39.683
				C108.317-220.3146,107.692-220.6376,107.0648-220.957L107.0648-220.957z M98.0634-225.2413L79.909-184.2846
				c0.0838,0.0372,0.1676,0.0744,0.2513,0.1117c0.0041,0.0018,0.0071,0.0032,0.0112,0.005c0.0246,0.011,0.0492,0.0219,0.0738,0.0329
				c0.0081,0.0036,0.0167,0.0074,0.0249,0.0111c0.0207,0.0092,0.0414,0.0185,0.0621,0.0277
				c0.1056,0.0472,0.2011,0.0901,0.3066,0.1376c0,0,0.0006,0.0003,0.0009,0.0004c0.0284,0.0128,0.0626,0.0282,0.091,0.041l0,0
				c0.215,0.0969,0.4229,0.1913,0.6373,0.2893l18.622-40.7464C99.3498-224.6667,98.7076-224.9559,98.0634-225.2413L98.0634-225.2413
				z M88.8393-229.0352L72.925-187.157c0.0335,0.0127,0.0549,0.0209,0.0883,0.0336c0.0033,0.0013,0.0066,0.0025,0.0098,0.0038
				c0.0167,0.0063,0.0282,0.0107,0.045,0.0171c0.4512,0.1719,0.901,0.3462,1.3499,0.5227l16.3936-41.6928
				C90.1559-228.5305,89.4984-228.7846,88.8393-229.0352L88.8393-229.0352z M79.422-232.325l-13.625,42.6779
				c0.3385,0.108,0.6697,0.2151,1.0071,0.3257c0.0165,0.0054,0.0331,0.0108,0.0496,0.0162c0.0043,0.0014,0.0141,0.0046,0.0183,0.006
				c0.1488,0.0488,0.2974,0.0978,0.446,0.1472l14.1137-42.5187C80.7636-231.8926,80.0936-232.1106,79.422-232.325L79.422-232.325z
				 M69.8397-235.1007l-11.2954,43.3526c0.4219,0.11,0.843,0.2218,1.2635,0.3356c0.0131,0.0036,0.0251,0.0068,0.0382,0.0103
				c0.019,0.0052,0.0381,0.0103,0.0571,0.0155c0.0611,0.0166,0.1253,0.0341,0.1864,0.0508l11.7916-43.2204
				C71.2021-234.7416,70.5217-234.923,69.8397-235.1007L69.8397-235.1007z M60.1234-237.3536l-8.9356,43.8999
				c0.0268,0.0054,0.0495,0.0101,0.0763,0.0155c0.0147,0.003,0.0294,0.006,0.044,0.009c0.0134,0.0027,0.0273,0.0056,0.0407,0.0083
				c0.0291,0.006,0.0581,0.0119,0.0872,0.0179l0.0025,0.0005c0.3913,0.0804,0.7821,0.1624,1.1722,0.2461l0.0081,0.0017
				c0.0315,0.0067,0.0631,0.0135,0.0946,0.0203c0.0044,0.0009,0.0088,0.0019,0.0133,0.0029
				c0.0091,0.002,0.0182,0.0039,0.0273,0.0059l9.4376-43.7947C61.5037-237.0685,60.8143-237.213,60.1234-237.3536L60.1234-237.3536z
				 M50.3058-239.0776l-6.5564,44.3177c0.0319,0.0047,0.0623,0.0092,0.0941,0.0139c0.0021,0.0003,0.0043,0.0006,0.0064,0.0009
				c0.0137,0.002,0.0309,0.0046,0.0446,0.0067c0.025,0.0037,0.0499,0.0074,0.0748,0.0112l0.0056,0.0008
				c0.4285,0.0641,0.8564,0.1301,1.2837,0.1982c0.0227,0.0036,0.0403,0.0064,0.063,0.01c0.0036,0.0005,0.0071,0.0011,0.0107,0.0017
				l7.062-44.2399C51.6996-238.8673,51.0034-238.9743,50.3058-239.0776L50.3058-239.0776z M40.425-240.2693l-4.1713,44.6053
				c0.5317,0.0497,1.0624,0.1024,1.5924,0.158l4.6767-44.5551C41.8247-240.1345,41.1254-240.2039,40.425-240.2693L40.425-240.2693z
				 M30.5114-240.9305L28.72-196.1663c0.1032,0.0041,0.1955,0.0079,0.2986,0.0122c0.0049,0.0002,0.0098,0.0004,0.0147,0.0006
				c0.0234,0.001,0.0584,0.0024,0.0818,0.0034c0.401,0.0172,0.8017,0.036,1.2017,0.0565l2.2941-44.7413
				C31.9121-240.8705,31.2123-240.9025,30.5114-240.9305L30.5114-240.9305z"/>
		</g>
	</g>
	<circle class="st2" cx="23.0328" cy="-55.7073" r="63.36"/>
	<g>
		<path class="st3" d="M-48.0031-13.3075l5.0953-4.8719L-21.164,4.5613l-36.9938,35.375l-21.7437-22.7375l5.0953-4.875
			l16.4313,17.1844l10.6516-10.1844L-63.2219,3.1175l4.8781-4.6656l15.4984,16.2062l11.2734-10.7813L-48.0031-13.3075z"/>
	</g>
	<g>
		<path class="st3" d="M-101.7703-61.6668l27.4266,13.8719l23.4906-19.1188l0.9875,9.0594l-17.7672,14.1969l0.0406,0.3719
			l20.4109,10.075l0.9312,8.5344l-27.4281-13.5344l-23.4781,18.8937l-1-9.1719l17.9203-14.175l-0.0406-0.3719l-20.5391-9.8719
			L-101.7703-61.6668z"/>
	</g>
	<g>
		<path class="st3" d="M-45.0187-84.545l-2.6531,7.2562l-41.3844-15.1219l-5.2125,14.2656l-6.6938-2.4437l13.075-35.7875
			l6.6937,2.4437l-5.2125,14.2656L-45.0187-84.545z"/>
	</g>
	<g>
		<path class="st3" d="M-55.1297-152.3699c2.2094-1.7563,4.4344-3,6.6719-3.7219c2.2312-0.7219,4.3312-0.9281,6.2875-0.6156
			s3.7813,0.9844,5.4813,2.0125c1.6969,1.0313,3.2219,2.4,4.575,4.1031c1.2437,1.5656,2.1719,3.1844,2.7812,4.8531
			c0.6125,1.6719,0.8937,3.25,0.8438,4.7438c-0.0438,1.4875-0.2437,2.8438-0.5969,4.0656
			c-0.3531,1.2219-0.8594,2.3656-1.5094,3.4312l21.2875,10.0906l-6.8375,5.4375l-19.5562-9.6531l-8.8344,7.0219l12.2719,15.4438
			l-6.0187,4.7813l-31.85-40.0687L-55.1297-152.3699z M-48.689-125.8262l7.9562-6.325c2.6-2.0688,4.125-4.2438,4.5625-6.5219
			c0.4375-2.2813-0.225-4.5281-1.9813-6.7375c-1.85-2.3281-3.9688-3.55-6.3625-3.6625c-2.3875-0.1156-4.7844,0.7844-7.1906,2.7
			l-8.1594,6.4844L-48.689-125.8262z"/>
	</g>
	<g>
		<path class="st3" d="M60.9485-119.3043l-6.2922-4.4812l29.6953-41.6937l25.2906,18.0125l-4.1125,5.775l-18.9984-13.5313
			l-9.2016,12.9188l17.3797,12.3812l-4.0469,5.6813l-17.3797-12.3812L60.9485-119.3043z"/>
	</g>
	<g>
		<path class="st3" d="M7.911-128.77h-7.8l17.85-51.1875h8.3625L44.136-128.77h-8.25l-4.8-14.2875H12.711L7.911-128.77z
			 M22.086-171.22h-0.3l-7.2,21.7875h14.7L22.086-171.22z"/>
	</g>
	<g>
		<path class="st3" d="M87.1875-94.1075l-4.1828-6.4938l43.0359-27.7187l4.1828,6.4937L87.1875-94.1075z"/>
	</g>
	<g>
		<path class="st3" d="M147.0516-69.5762c0.3,2.8094,0.1563,5.35-0.4312,7.625c-0.5859,2.275-1.5359,4.1563-2.8469,5.6406
			c-1.3141,1.4875-2.8594,2.6688-4.6375,3.55c-1.7797,0.8813-3.75,1.4375-5.9141,1.6688c-1.9875,0.2125-3.8516,0.1281-5.5891-0.2531
			c-1.7359-0.3781-3.2219-0.9875-4.4562-1.8219c-1.2328-0.8375-2.2719-1.7312-3.1141-2.6875
			c-0.8438-0.9531-1.5391-1.9906-2.0875-3.1156L98.0485-46.395l-0.9281-8.6875l18.6266-11.3406l-1.1984-11.225L94.936-75.5543
			l-0.8156-7.6437l50.8984-5.4313L147.0516-69.5762z M121.186-78.3543l1.0781,10.1031c0.3531,3.3062,1.3766,5.7562,3.0672,7.3469
			c1.6906,1.5938,3.9406,2.2375,6.75,1.9406c2.9578-0.3156,5.125-1.4531,6.5-3.4094c1.3734-1.9594,1.8984-4.4656,1.5719-7.5219
			l-1.1062-10.3656L121.186-78.3543z"/>
	</g>
	<g>
		<path class="st3" d="M93.9531-29.8137L98-35.495l41.7063,29.6781l-4.4594,6.2656L96.0438-7.6575l-0.1719,0.2438l20.5219,34.35
			l-4.4563,6.2625L70.2313,3.5207L74.3-2.1918l29.2062,20.7875l0.2406-0.3375l-17-28.7594l3.4156-4.7969L122.9438-8.72
			l0.2188-0.3062L93.9531-29.8137z"/>
	</g>
</g>
</svg>
