<svg xmlns="http://www.w3.org/2000/svg" viewBox="0 0 527.31 379.16"><defs><style>.cls-1{fill:#1d1d1b;}</style></defs><title>Asset 3</title><g id="Layer_2" data-name="Layer 2"><g id="Layer_27" data-name="Layer 27"><path class="cls-1" d="M187.35,32.58c6.36-8.47,12.18-23.33.47-30.59-14.34-8.88-27,14.34-32.12,24.19-7.91,15.35-13.41,32-18.53,48.46-5.21,16.73-9.62,33.7-13.75,50.73-8.28,34.12-15.22,68.57-24.62,102.42-9.33,33.61-20.3,68.49-38.7,98.37-7.59,12.33-24.37,35.54-41.81,27.06-8.17-4-11-14.62-12.63-22.81-1.83-9.42-1-18.63,1.21-27.92A27.67,27.67,0,0,0,6.75,291c-.21-1-1.63-5.49-2.52-2.19A126.55,126.55,0,0,0,2.44,346c2.68,13.61,8.53,36.36,27,32.75,15.79-3.09,26.91-19.61,34.36-32.53,8.76-15.2,15.72-31.57,21.85-48C111.08,230.09,118.87,157,139.12,87.38c5.71-19.63,11.6-40.27,22.33-57.84,4.66-7.62,10.77-16.82,20-19,3.28-.77,7.95-1.15,10.63,1.42,4.79,4.59-2.15,14-5,17.87-.44.61.19,2.8.23,2.74Z"/><path class="cls-1" d="M158.7,140.12c0-1.8.38-4.64-1.42-5.8-2.75-1.77-7.16,2.82-9,4.39-6.3,5.33-13.92,13.47-16,21.74-.43,1.74-.73,4.63.08,6.31,1.46,3,4.81,1.46,7.15,0,3.57-2.17,6.12-5.71,8.72-8.9,3.65-4.48,7.26-9,10.86-13.53l-.52-6.1c-4.14,7.31-9.82,16.41-10.83,24.85-.21,1.8-.37,4.51.69,6.09,2.08,3.12,5.82-.42,7.37-2.37.84-1.07-.25-5.6-.46-5.37-1.35,1.5-3.32,3.11-5.49,3-.75,0-.6,1,.06-1,.47-1.42,1.11-2.8,1.7-4.17a141.56,141.56,0,0,1,7.49-15c.7-1.21-.27-6.42-.52-6.1-4.22,5.23-8.37,10.5-12.56,15.75-1.57,2-10.62,12.59-13.1,7.41l.34,4.2c.54-5.46,20.07-30.22,24.68-24.46l-.55-3.7,0,1.08c0,2.12,1.21,5.76,1.31,1.57Z"/><path class="cls-1" d="M185.29,91.1c-10.61,23.14-15.71,48.26-25.69,71.64l1.64,5.27.07-1.87c0-.38-.59-5.28-1.09-4.48l-.38.6c-1,1.64-.76,4.59-.51,6.36.08.55.64,4.17,1.51,2.21C171.58,146.68,175.78,120.32,186,96c.44-1.05-.26-6-.75-4.89Z"/><path class="cls-1" d="M193.7,113.15c-8,13.09-16.18,26.44-20,41.45-1,4.06-3,11.5-.37,15.43,3.12,4.68,10.38-1.94,11.92-5.12.44-.9.71-8.93-.72-8.65-1.62.31-2.26,1.47-3.48,2.55a39.44,39.44,0,0,1-3.9,2.72,2.2,2.2,0,0,1-1.09.35q-1-.08-.93,1.08-.74,2.14,0-.36.26-1.11.58-2.21c.32-1.15.67-2.3,1-3.43.84-2.57,1.78-5.1,2.8-7.61,4.07-10,9.49-19.38,14.87-28.72.76-1.32.62-3.33.47-4.79,0-.28-.62-3.48-1.11-2.69Z"/><path class="cls-1" d="M184.74,146.2c2.11,0,2-13.89-.34-13.89-2.11,0-2,13.89.34,13.89Z"/><path class="cls-1" d="M177.47,145.14c6.54-.2,13.48-.69,19.69-2.87,1.94-.68.37-9-.21-8.75-6.55,2.3-12.71,4.65-19.62,5.72-1,.16-.74,5.93.14,5.9Z"/><path class="cls-1" d="M312.81,74.84c5.52-4.46,2.86-16.94-4.44-18-5.25-.74-9.24,3.05-12,7a158.36,158.36,0,0,0-9.76,16.47c-12.48,23.26-21.16,48.32-28.09,73.73-7.12,26.12-12.17,52.72-18.6,79-6.29,25.75-13.7,53.5-28.75,75.71-7.06,10.42-17.26,20.53-30.09,22.93-6.63,1.24-13.66-.17-17.94-5.75-4-5.24-3.83-12-3.5-18.26.1-1.82-1.41-8.87-1.9-3.45-.89,9.83-1.52,21.39,3.26,30.4,5.3,10,16.75,10.62,26.23,6.43,21.07-9.32,31.73-33,39.48-53.25,19.44-50.77,24.48-105.69,42.43-157a293,293,0,0,1,18.18-41.94c3.21-6,6.47-12.33,10.67-17.69,2-2.61,4.61-5.05,7.9-5.92,1.53-.4,9.32,0,6.33,2.57-1.26,1.1.08,7.36.59,6.95Z"/><path class="cls-1" d="M274.46,141.92c-4.06,20-9.09,39.62-13.84,59.41l1.25,3.1q0-1.11.05-2.22c0-.46-.47-4.63-1-2.42q-.19.77-.33,1.54c-.22,1.14-.46,3.15,0,4.23.12.26.58,2.1.93.81,5.46-20.05,9.62-40.62,13.71-61,.17-.82-.42-5.53-.84-3.46Z"/><path class="cls-1" d="M275.12,145.8c4.84-3.24,17.5-5.14,11,4.35-3.57,5.24-10,8.28-13.06,13.62-.58,1-.64,9.95.51,9.44,2.75-1.19,4.46-4.11,6.43-6.31a63.83,63.83,0,0,0,5.5-6.73,27,27,0,0,0,4.9-13.84c.12-2.92.1-7-2.52-8.92-3.9-2.85-9.91-.05-13.31,2.28-1.16.79-.06,6.5.52,6.11Z"/><path class="cls-1" d="M295.25,140.73c-1,7.37-1.83,14.91-3.93,22.07l.85,2.74c.33-6.05,4.05-12.41,9.79-14.79,2.19-.91,4.31-.69,6.52-1.23s3.18-2.11,4.17-4.18c.32-.66.27-6.63-.53-6.31-2.92,1.18-5.81,1.82-8.62,3.53a29.29,29.29,0,0,0-7.31,6.38,24,24,0,0,0-5.1,16c0,.56.51,3.68,1,1.71,1.78-7.88,3-15.75,4-23.76.12-.91-.51-4.77-.86-2.13Z"/><path class="cls-1" d="M315.85,141.73q-1,4.64-2,9.26c-.58,2.51-.82,6.85-2.33,9-1.18,1.68-.8,5.38-.34,7.22.62,2.5,1.42,1.68,1.64-.51.67-6.58,3-13.26,4.35-19.74.31-1.48.52-3.85-.13-5.26-.46-1-.82-1.52-1.15,0Z"/><path class="cls-1" d="M323.57,141.67l-2.66,18a8.71,8.71,0,0,0,0,4c.13.33.48,1.91.88.76,1.6-4.57,3.21-9.23,5.83-13.34.61-1,3.17-5.32,4.7-5,2.25.41,1,7.57.94,9.29-.13,3.4-.43,7.9,1,11.1,1.62,3.62,4.27,1.18,5.35-1.38a9.82,9.82,0,0,0,.22-4.65c0-.26-.49-2.86-1-2.13s-1.46,2.19-2.48,2.29c-2.13.2-1.41-3.5-1.47-5-.1-2.4.25-4.84.17-7.25-.06-1.93.13-7.07-2-8.25-4.84-2.73-11.06,16.14-12.08,19.09l.92,4.76,2.63-18.08c.16-1.13.51-3.15-.1-4.18-.38-.63-.71-1.36-.91,0Z"/><path class="cls-1" d="M352.58,140c-8.71,4.28-16.11,16.35-12.3,26.31,2.06,5.4,8.39-.82,10.77-3.32a28.18,28.18,0,0,0,7.21-15.54,16.69,16.69,0,0,0,0-5.51c0-.19-.65-3-1.17-2.06-3.52,6.22-4.92,13.09-6.49,20-2,8.9-4,17.81-6.11,26.7q-6.18,26.4-13.64,52.49c-4.73,16.41-10,33.41-18.41,48.36-7.43,13.17-19,22.18-33.88,25.52-7.75,1.75-16.23,1.77-23.6-1.49a23.41,23.41,0,0,1-9.69-7.61,20.63,20.63,0,0,1-2.58-4.67c-1-2.48-.36-3.51.91-5.91,1-1.9.84-4.53.66-6.61,0-.42-.77-4.78-1.53-3.71-7.45,10.49-4,29.6,5.77,37.56,12.82,10.39,33,5.1,45.45-3.25,15.51-10.42,22.2-28.48,28.36-45.31,7-19.14,12.36-38.89,17.77-58.53q4.19-15.21,8.08-30.51c2.84-11.14,3.95-24.19,9.68-34.28L356.69,141a23.32,23.32,0,0,1-4.5,10.92c-2.3,3-5.24,4.51-8,6.91a7.73,7.73,0,0,1-1.46.66q-1.78,6-.5,1.32a18.7,18.7,0,0,1,2.3-4.6,20.87,20.87,0,0,1,8.31-7.07c2.13-1,.05-9.32-.23-9.18Z"/><path class="cls-1" d="M423.78,42.39a891.81,891.81,0,0,1-31,121.78c-.59,1.8-.47,16.57,1.74,14.92l3.46-2.56c2-1.47,1.18-7.92,1-10-.09-1-.56-6.85-2.32-5.62l-3.47,2.43L395,178.26A996.13,996.13,0,0,0,425.16,48c.25-1.51.68-4.3-.14-5.68-.54-.9-.91-1.82-1.24,0Z"/><path class="cls-1" d="M422.4,133.78a11.85,11.85,0,0,0-2-4.74.24.24,0,0,0-.44,0c-2.29,4.58-2.55,9.52-2.07,14.56.4,4.21,1.85,8.14,1.22,12.36-.42,2.8-.92,5-4.28,5.39-1.69.22-3.36.92-1.88-.68,1.1-1.19.71-4.34.57-5.8,0-.36-.71-4.2-1.34-3.25A17,17,0,0,0,409.16,164c.5,4.44,3.59,7.21,7.89,4.18,3.42-2.41,4.24-6.73,4.39-10.64a39.08,39.08,0,0,0-.31-6.25c-.18-1.52-.46-3-.75-4.51l-.59-3a4.83,4.83,0,0,1,1.41-5.39c.28,1.44.37,2.24,1.24,1s.18-4.41-.05-5.63Z"/><path class="cls-1" d="M443.78,89.26c-5.75,24-11.68,47.92-17.28,71.94-.24,1,.57,8.42,1.16,7.61A3,3,0,0,1,429,167.4c1.15-.78.68-4.64.57-5.8,0-.35-.74-4.21-1.34-3.25a3.79,3.79,0,0,1-1.37,1.67l1.16,7.61c5.79-24.47,11.26-49,16.9-73.52.26-1.14-.49-7.75-1.18-4.84Z"/><path class="cls-1" d="M448.65,137.85c-5.64,1.84-8.23,9.48-10.27,14.52-1.68,4.16-3.86,9.19-3,13.82,1.16,6.12,6.39-.14,8.51-2.55a48,48,0,0,0,9.6-17.78l-.91-4.7c-1.35,7.1-4.2,15.39-3.22,22.7.94,7.06,6.63,1.87,10.3-.54,1.69-1.11-.4-7.27-.6-7.05-1.43,1.59-4,4.07-6.26,4.42-2.09.32-1.41,1.47-1.5-1.46-.14-4.38,1.63-9.51,2.31-13.84.15-.94-.59-5.88-.91-4.7-2.09,7.8-6.57,16.24-13.09,21.31-3.21,2.49-2.7,1.32-1.68-1.62.74-2.12,1.57-4.2,2.51-6.23,1.79-3.9,3.92-9.25,8.34-10.71,1.22-.4.27-5.71-.14-5.58Z"/><path class="cls-1" d="M466.15,138.07q-1.63,11.2-3.93,22.27c-.16.77.46,6.14.85,5.57,4.54-6.75,6.06-15.38,13-20.31l-.77-.88c2,6.68-2.77,14.48,1.18,21,5,8.27,12.85-3.46,15.22-7.77a7.76,7.76,0,0,0,.42-4.25c0-.25-.56-3.09-1-2.38a33.1,33.1,0,0,1-6.25,7.85c-4,3.47-8.13,2.46-8.24-3.65-.1-5.54,1.29-10.28-.39-15.79-.1-.34-.25-1.25-.77-.88-7,5-8.55,13.74-13,20.61l.85,5.57q2.29-11.66,3.88-23.42c.12-.86-.73-6.06-1.1-3.55Z"/><path class="cls-1" d="M526.68,88.32l-8.2,36.95-4,18c-.93,4.21-1.7,16.91-6.33,18.28l.6,1.47c-.81-4.75-1.8-9.47-2.77-14.18-.56-2.73-.71-6.72-2.36-9.15-4.16-6.14-11.08,6-12.44,9.27-2,4.66-2.28,11-.27,15.68,3,7.11,10.58,5.56,16.32,2.64,2.32-1.18.1-9.57-.49-9.12-3.76,2.81-8.77,6.67-13.28,2.77-4.08-3.54-.15-8.08,2.35-11.3,1.07-1.38,2.76-4.08,4.67-4.32,3.55-.45,3.63,4.5,4.13,6.84,1,4.85,2,9.73,3.22,14.54,0,.16.28,1.19.66.76,3.38-3.94,3.91-8.92,5-13.84l4.6-20.94,9.21-41.87c.13-.59-.27-3.93-.6-2.46Z"/></g></g></svg>